<svg width="176" height="46" viewBox="0 0 176 46" fill="none" xmlns="http://www.w3.org/2000/svg">
<path d="M0.14 1.38H10.7V45H0.14V1.38ZM38.42 1.38L24.38 23.1L38.12 45H25.94L12.44 23.1L26 1.38H38.42ZM72.2234 1.38C77.1034 1.38 80.9634 2.68 83.8034 5.28C86.6834 7.88 88.1234 11.42 88.1234 15.9C88.1234 18.86 87.4634 21.42 86.1434 23.58C84.8234 25.7 82.9634 27.3 80.5634 28.38L89.6234 45H78.1034L70.1234 30.06H64.7234V45H54.1634V1.38H72.2234ZM69.9434 21.78C74.7834 21.78 77.2034 19.82 77.2034 15.9C77.2034 11.86 74.7834 9.84 69.9434 9.84H64.7234V21.78H69.9434ZM134.241 45H122.901L120.021 35.82H104.961L102.081 45H90.7409L105.441 1.38H119.481L134.241 45ZM107.481 27.84H117.501L112.641 12.36H112.281L107.481 27.84ZM164.53 16.08C164.09 14.2 163.13 12.72 161.65 11.64C160.21 10.56 158.39 10.02 156.19 10.02C152.99 10.02 150.47 11.18 148.63 13.5C146.79 15.78 145.87 18.98 145.87 23.1C145.87 27.3 146.77 30.56 148.57 32.88C150.37 35.2 152.91 36.36 156.19 36.36C159.03 36.36 161.21 35.7 162.73 34.38C164.29 33.02 165.11 31.16 165.19 28.8H156.55V21.12H175.33V26.94C175.33 30.78 174.51 34.1 172.87 36.9C171.27 39.7 169.01 41.86 166.09 43.38C163.17 44.86 159.83 45.6 156.07 45.6C151.91 45.6 148.25 44.7 145.09 42.9C141.93 41.1 139.47 38.52 137.71 35.16C135.99 31.76 135.13 27.78 135.13 23.22C135.13 18.62 136.03 14.62 137.83 11.22C139.67 7.82 142.17 5.24 145.33 3.48C148.49 1.68 152.03 0.779997 155.95 0.779997C160.91 0.779997 164.99 1.92 168.19 4.2C171.43 6.48 173.63 9.6 174.79 13.56L164.53 16.08Z" fill="black"/>
</svg>
