<svg width="285" height="76" viewBox="0 0 285 76" fill="none" xmlns="http://www.w3.org/2000/svg">
<path d="M15.7 1.79999V74.5H0.4V1.79999H15.7ZM61.6 74.5H43.4L19.3 37.8L43.1 1.79999H61.3L36.9 37.8L61.6 74.5ZM117.186 1.79999C125.319 1.79999 131.686 3.93333 136.286 8.2C140.886 12.4667 143.186 18.2333 143.186 25.5C143.186 30.5 142.086 34.7667 139.886 38.3C137.686 41.8333 134.519 44.4667 130.386 46.2L145.786 74.5H128.786L115.086 48.7H103.786V74.5H88.4859V1.79999H117.186ZM114.286 36.4C123.019 36.4 127.386 32.7667 127.386 25.5C127.386 21.8333 126.253 19.0667 123.986 17.2C121.786 15.2667 118.519 14.3 114.186 14.3H103.786V36.4H114.286ZM217.181 74.5H200.681L195.281 57.9H169.081L163.681 74.5H147.181L172.281 1.79999H192.081L217.181 74.5ZM172.981 45.9H191.481L182.481 18.4H181.981L172.981 45.9ZM268.638 26.3C267.638 22.7667 265.705 19.9 262.838 17.7C259.972 15.5 256.572 14.4 252.638 14.4C246.972 14.4 242.438 16.5 239.038 20.7C235.638 24.8333 233.938 30.6333 233.938 38.1C233.938 45.6333 235.605 51.5 238.938 55.7C242.338 59.8333 246.938 61.9 252.738 61.9C257.805 61.9 261.805 60.6 264.738 58C267.672 55.3333 269.205 51.7333 269.338 47.2H253.738V35.6H284.138V44.7C284.138 50.9667 282.805 56.4333 280.138 61.1C277.472 65.7667 273.738 69.3333 268.938 71.8C264.205 74.2667 258.772 75.5 252.638 75.5C245.838 75.5 239.838 74 234.638 71C229.505 67.9333 225.505 63.6 222.638 58C219.772 52.3333 218.338 45.7333 218.338 38.2C218.338 30.5333 219.805 23.9 222.738 18.3C225.738 12.6333 229.805 8.3 234.938 5.3C240.138 2.3 245.938 0.799995 252.338 0.799995C260.338 0.799995 266.905 2.66666 272.038 6.39999C277.238 10.0667 280.938 15.1667 283.138 21.7L268.638 26.3Z" fill="black"/>
</svg>
