<svg width="200" height="40" viewBox="0 0 200 40" fill="none" xmlns="http://www.w3.org/2000/svg">
<path d="M9.77152 1.45312H0V33.6736H9.77152V1.45312Z" fill="#FF0000"/>
<path d="M33.1821 1.46094H22.5546L12.5242 17.5677L22.551 33.6814H33.1785L23.1516 17.5712L33.1821 1.46094Z" fill="#FF0000"/>
<mask id="mask0_2555_12587" style="mask-type:luminance" maskUnits="userSpaceOnUse" x="12" y="1" width="22" height="17">
<path d="M12.5254 17.5677L23.1529 17.5712L33.1833 1.46094H22.5559L12.5254 17.5677Z" fill="white"/>
</mask>
<g mask="url(#mask0_2555_12587)">
<path d="M21.2612 -8.29373L4.22119 10.7812L24.457 27.3636L41.4969 8.28866L21.2612 -8.29373Z" fill="url(#paint0_linear_2555_12587)"/>
</g>
<path d="M42.8933 11.6406H46.8674V15.4159H42.8933V11.6406ZM46.8026 33.6755H42.9616V17.5618H46.8026V33.6755Z" fill="#FF0000"/>
<path d="M50.3054 17.5683H54.1464V19.2871C55.1103 18.2124 56.6136 17.2617 58.793 17.2617C62.3175 17.2617 64.4322 19.5937 64.4322 23.0624V33.6785H60.5876V24.1371C60.5876 22.1392 59.7568 20.6994 57.6385 20.6994C55.9087 20.6994 54.1464 21.9257 54.1464 24.2266V33.6785H50.3054V17.5648V17.5683Z" fill="#FF0000"/>
<path d="M68.1543 20.6969H65.813V17.5658H68.1543V12.8398H71.9341V17.5658H75.4586V20.6969H71.9341V29.0465C71.9341 30.4898 72.8009 30.6414 74.1783 30.6414C74.8185 30.6414 75.1709 30.6103 75.7464 30.5483V33.6485C75.0415 33.7725 74.0812 33.862 73.0886 33.862C69.8842 33.862 68.1543 32.9113 68.1543 29.6252V20.6934V20.6969Z" fill="#FF0000"/>
<path d="M76.876 25.6389C76.876 20.913 80.2099 17.2617 84.8889 17.2617C89.5678 17.2617 92.3515 20.789 92.3515 25.2083V26.438H80.5623C80.85 29.2006 82.5799 30.885 85.0471 30.885C86.9388 30.885 88.4457 29.9653 88.9564 28.3084L92.258 29.5071C91.0747 32.3317 88.417 34.0161 85.0507 34.0161C80.2459 34.0161 76.8796 30.6094 76.8796 25.6389M80.753 23.6755H88.4745C88.4421 21.8981 87.2913 20.3618 84.8529 20.3618C82.8677 20.3618 81.332 21.4951 80.753 23.6755Z" fill="#FF0000"/>
<path d="M98.5458 11.6406H94.7048V33.6755H98.5458V11.6406Z" fill="#FF0000"/>
<path d="M105.884 11.6406H102.043V33.6755H105.884V11.6406Z" fill="#FF0000"/>
<path d="M109.317 11.6406H113.291V15.4159H109.317V11.6406ZM113.226 33.6755H109.385V17.5618H113.226V33.6755Z" fill="#FF0000"/>
<path d="M123.485 39.5377C119.608 39.5377 116.886 37.9704 115.828 34.8428L119.414 33.6131C119.928 35.4249 121.367 36.5582 123.485 36.5582C126.082 36.5582 127.84 35.3319 127.84 32.3868V31.2535C126.945 32.3868 125.247 33.2789 123.1 33.2789C118.486 33.2789 115.731 29.6897 115.731 25.2703C115.731 20.851 118.486 17.2617 123.1 17.2617C125.215 17.2617 126.945 18.1504 127.84 19.2871V17.5683H131.685V32.0527C131.685 36.8096 128.286 39.5412 123.482 39.5412M123.838 20.4789C121.18 20.4789 119.608 22.2563 119.608 25.2669C119.608 28.2774 121.18 30.0548 123.838 30.0548C126.24 30.0548 127.909 28.367 127.909 25.4839V25.1153C127.909 22.1702 126.244 20.4789 123.838 20.4789Z" fill="#FF0000"/>
<path d="M134.16 25.6389C134.16 20.913 137.494 17.2617 142.173 17.2617C146.851 17.2617 149.635 20.789 149.635 25.2083V26.438H137.846C138.134 29.2006 139.864 30.885 142.331 30.885C144.222 30.885 145.729 29.9653 146.24 28.3084L149.542 29.5071C148.358 32.3317 145.701 34.0161 142.334 34.0161C137.53 34.0161 134.163 30.6094 134.163 25.6389M138.037 23.6755H145.758C145.726 21.8981 144.575 20.3618 142.137 20.3618C140.151 20.3618 138.616 21.4951 138.037 23.6755Z" fill="#FF0000"/>
<path d="M151.987 17.5683H155.828V19.2871C156.792 18.2124 158.295 17.2617 160.474 17.2617C163.999 17.2617 166.114 19.5937 166.114 23.0624V33.6785H162.269V24.1371C162.269 22.1392 161.438 20.6994 159.32 20.6994C157.59 20.6994 155.828 21.9257 155.828 24.2266V33.6785H151.987V17.5648V17.5683Z" fill="#FF0000"/>
<path d="M176.703 30.8264C178.753 30.8264 180.005 29.5381 180.483 27.7573L183.785 29.3521C182.921 31.9597 180.357 34.0161 176.703 34.0161C171.898 34.0161 168.435 30.6094 168.435 25.6389C168.435 20.6684 171.898 17.2617 176.703 17.2617C180.325 17.2617 182.824 19.2251 183.72 21.8017L180.483 23.4895C180.005 21.7397 178.753 20.4204 176.703 20.4204C174.074 20.4204 172.28 22.3528 172.28 25.6389C172.28 28.925 174.074 30.8264 176.703 30.8264Z" fill="#FF0000"/>
<path d="M184.525 25.6389C184.525 20.913 187.859 17.2617 192.537 17.2617C197.216 17.2617 200 20.789 200 25.2083V26.438H188.211C188.499 29.2006 190.229 30.885 192.696 30.885C194.587 30.885 196.094 29.9653 196.605 28.3084L199.907 29.5071C198.723 32.3317 196.062 34.0161 192.699 34.0161C187.895 34.0161 184.528 30.6094 184.528 25.6389M188.402 23.6755H196.123C196.091 21.8981 194.94 20.3618 192.502 20.3618C190.516 20.3618 188.981 21.4951 188.402 23.6755Z" fill="#FF0000"/>
<defs>
<linearGradient id="paint0_linear_2555_12587" x1="5.53972" y1="27.9186" x2="26.7085" y2="2.08604" gradientUnits="userSpaceOnUse">
<stop stop-color="white"/>
<stop offset="1" stop-color="#FF0000"/>
</linearGradient>
</defs>
</svg>
