<svg width="32" height="32" viewBox="0 0 32 32" fill="none" xmlns="http://www.w3.org/2000/svg">
<path d="M26.6654 17.3313C26.6654 23.998 21.9987 27.3313 16.452 29.2647C16.1616 29.3631 15.8461 29.3584 15.5587 29.2513C9.9987 27.3313 5.33203 23.998 5.33203 17.3313V7.998C5.33203 7.64437 5.47251 7.30524 5.72256 7.05519C5.9726 6.80514 6.31174 6.66466 6.66536 6.66466C9.33203 6.66466 12.6654 5.06466 14.9854 3.038C15.2678 2.79666 15.6272 2.66406 15.9987 2.66406C16.3702 2.66406 16.7296 2.79666 17.012 3.038C19.3454 5.078 22.6654 6.66466 25.332 6.66466C25.6857 6.66466 26.0248 6.80514 26.2748 7.05519C26.5249 7.30524 26.6654 7.64437 26.6654 7.998V17.3313Z" stroke="black" stroke-width="2" stroke-linecap="round" stroke-linejoin="round"/>
<path d="M12 16.0026L14.6667 18.6693L20 13.3359" stroke="black" stroke-width="2" stroke-linecap="round" stroke-linejoin="round"/>
</svg>
