<svg width="32" height="32" viewBox="0 0 32 32" fill="none" xmlns="http://www.w3.org/2000/svg">
<path d="M24.5556 14H7.44444C6.09441 14 5 15.221 5 16.7273V26.2727C5 27.779 6.09441 29 7.44444 29H24.5556C25.9056 29 27 27.779 27 26.2727V16.7273C27 15.221 25.9056 14 24.5556 14Z" stroke="white" stroke-width="2" stroke-linecap="round" stroke-linejoin="round"/>
<path d="M10 14V9.66667C10 7.89856 10.6321 6.20286 11.7574 4.95262C12.8826 3.70238 14.4087 3 16 3C17.5913 3 19.1174 3.70238 20.2426 4.95262C21.3679 6.20286 22 7.89856 22 9.66667V14" stroke="white" stroke-width="2" stroke-linecap="round" stroke-linejoin="round"/>
</svg>
