<svg width="32" height="32" viewBox="0 0 32 32" fill="none" xmlns="http://www.w3.org/2000/svg">
<path d="M20.9164 19.9974C20.175 23.5039 18.4734 26.7353 16.0017 29.3307C12.578 25.7359 10.6684 20.9617 10.6684 15.9974C10.6684 11.033 12.578 6.25893 16.0017 2.66406C13.5376 2.66471 11.1218 3.34821 9.02253 4.6387C6.92329 5.9292 5.22274 7.77619 4.10966 9.97465C2.99657 12.1731 2.5145 14.637 2.71696 17.0929C2.91942 19.5487 3.79848 21.9004 5.25657 23.8869C6.71465 25.8734 8.69471 27.417 10.9769 28.3463C13.2592 29.2755 15.7543 29.5542 18.1853 29.1513C20.6163 28.7484 22.8881 27.6797 24.7485 26.0638C26.6089 24.4479 27.9852 22.3481 28.7244 19.9974" stroke="white" stroke-width="2" stroke-linecap="round" stroke-linejoin="round"/>
<path d="M2.66797 16H14.0013" stroke="white" stroke-width="2" stroke-linecap="round" stroke-linejoin="round"/>
<path d="M26.6654 7.9974V5.33073C26.6654 4.62349 26.3844 3.94521 25.8843 3.44511C25.3842 2.94501 24.7059 2.66406 23.9987 2.66406C23.2915 2.66406 22.6132 2.94501 22.1131 3.44511C21.613 3.94521 21.332 4.62349 21.332 5.33073V7.9974" stroke="white" stroke-width="2" stroke-linecap="round" stroke-linejoin="round"/>
<path d="M28.0013 8H20.0013C19.2649 8 18.668 8.59695 18.668 9.33333V13.3333C18.668 14.0697 19.2649 14.6667 20.0013 14.6667H28.0013C28.7377 14.6667 29.3346 14.0697 29.3346 13.3333V9.33333C29.3346 8.59695 28.7377 8 28.0013 8Z" stroke="white" stroke-width="2" stroke-linecap="round" stroke-linejoin="round"/>
</svg>
