<svg width="24" height="24" viewBox="0 0 24 24" fill="none" xmlns="http://www.w3.org/2000/svg">
<g clip-path="url(#clip0_2584_24020)">
<path d="M1 14.7778L5 5L9 14.7778C7.84 15.5722 6.44 16 5 16C3.56 16 2.16 15.5722 1 14.7778Z" stroke="white" stroke-width="2" stroke-linecap="round" stroke-linejoin="round"/>
<path d="M15 14.7778L19 5L23 14.7778C21.84 15.5722 20.44 16 19 16C17.56 16 16.16 15.5722 15 14.7778Z" stroke="white" stroke-width="2" stroke-linecap="round" stroke-linejoin="round"/>
<path d="M5 23H19" stroke="white" stroke-width="2" stroke-linecap="round" stroke-linejoin="round"/>
<path d="M12 1L12 22" stroke="white" stroke-width="2" stroke-linecap="round" stroke-linejoin="round"/>
<path d="M3.5 4.5H5C8 4.5 10 4 12 2C14 4 16 4.5 19 4.5H20.5" stroke="white" stroke-width="2" stroke-linecap="round" stroke-linejoin="round"/>
</g>
<defs>
<clipPath id="clip0_2584_24020">
<rect width="24" height="24" fill="white"/>
</clipPath>
</defs>
</svg>
