<svg width="32" height="32" viewBox="0 0 32 32" fill="none" xmlns="http://www.w3.org/2000/svg">
<path d="M27.9987 18.06C27.9987 24.5608 22.7478 28.3398 16.5071 30.515C16.1804 30.6257 15.8254 30.6204 15.502 30.5C9.24636 28.3398 3.99609 24.5608 3.99609 18.06V8.06078C3.99609 7.66291 4.15415 7.28134 4.43548 7C4.71682 6.71866 5.09839 6.56061 5.49626 6.56061C8.49658 6.56061 12.2467 4.20097 14.857 1.92072C15.1748 1.64919 15.5791 1.5 15.9971 1.5C16.4151 1.5 16.8194 1.64919 17.1372 1.92072C19.7625 4.21597 23.4982 6.56061 26.4985 6.56061C26.8964 6.56061 27.278 6.71866 27.5593 7C27.8406 7.28134 27.9987 7.66291 27.9987 8.06078V18.06Z" stroke="white" stroke-width="2" stroke-linecap="round" stroke-linejoin="round"/>
<path d="M7.5 25.7758C8.21472 24.4155 9.24863 23.241 10.5203 22.3573C12.1294 21.2391 14.0421 20.6401 16.0015 20.6406C17.9609 20.6411 19.8733 21.2412 21.4818 22.3602C22.7516 23.2436 23.784 24.417 24.4979 25.7758" stroke="white" stroke-width="2" stroke-linecap="round" stroke-linejoin="round"/>
<path d="M15.9996 19.4444C18.6507 19.4444 20.7999 17.2952 20.7999 14.6441C20.7999 11.9929 18.6507 9.84375 15.9996 9.84375C13.3484 9.84375 11.1992 11.9929 11.1992 14.6441C11.1992 17.2952 13.3484 19.4444 15.9996 19.4444Z" stroke="white" stroke-width="2" stroke-linecap="round" stroke-linejoin="round"/>
</svg>
