<svg width="32" height="32" viewBox="0 0 32 32" fill="none" xmlns="http://www.w3.org/2000/svg">
<path d="M18.668 22.6641H6.66797" stroke="black" stroke-width="2.66667" stroke-linecap="round" stroke-linejoin="round"/>
<path d="M25.332 9.33594H13.332" stroke="black" stroke-width="2.66667" stroke-linecap="round" stroke-linejoin="round"/>
<path d="M22.668 26.6641C24.8771 26.6641 26.668 24.8732 26.668 22.6641C26.668 20.4549 24.8771 18.6641 22.668 18.6641C20.4588 18.6641 18.668 20.4549 18.668 22.6641C18.668 24.8732 20.4588 26.6641 22.668 26.6641Z" stroke="black" stroke-width="2.66667" stroke-linecap="round" stroke-linejoin="round"/>
<path d="M9.33203 13.3359C11.5412 13.3359 13.332 11.5451 13.332 9.33594C13.332 7.1268 11.5412 5.33594 9.33203 5.33594C7.12289 5.33594 5.33203 7.1268 5.33203 9.33594C5.33203 11.5451 7.12289 13.3359 9.33203 13.3359Z" stroke="black" stroke-width="2.66667" stroke-linecap="round" stroke-linejoin="round"/>
</svg>
