<svg width="369" height="77" viewBox="0 0 369 77" fill="none" xmlns="http://www.w3.org/2000/svg">
<path d="M16.2 2.79999V75.5H0.9V2.79999H16.2ZM62.1 75.5H43.9L19.8 38.8L43.6 2.79999H61.8L37.4 38.8L62.1 75.5ZM148.786 2.79999H167.786V75.5H152.886V28.2H152.286L133.486 75.1H123.286L104.486 28H103.886V75.5H88.9859V2.79999H107.886L127.986 51.6H128.786L148.786 2.79999ZM201.86 76.6C196.46 76.6 191.727 75.4333 187.66 73.1C183.593 70.7 180.46 67.3667 178.26 63.1C176.127 58.8333 175.06 53.9333 175.06 48.4C175.06 42.8 176.16 37.8667 178.36 33.6C180.56 29.3333 183.66 26.0333 187.66 23.7C191.727 21.3667 196.46 20.2 201.86 20.2C207.327 20.2 212.093 21.4 216.16 23.8C220.227 26.1333 223.327 29.4333 225.46 33.7C227.66 37.9 228.76 42.8 228.76 48.4C228.76 54 227.66 58.9333 225.46 63.2C223.26 67.4 220.127 70.7 216.06 73.1C211.993 75.4333 207.26 76.6 201.86 76.6ZM201.96 64.8C205.56 64.8 208.36 63.2667 210.36 60.2C212.36 57.1333 213.36 53.1667 213.36 48.3C213.36 43.4333 212.36 39.4667 210.36 36.4C208.36 33.3333 205.56 31.8 201.96 31.8C198.293 31.8 195.46 33.3333 193.46 36.4C191.46 39.4667 190.46 43.4333 190.46 48.3C190.46 53.2333 191.46 57.2333 193.46 60.3C195.46 63.3 198.293 64.8 201.96 64.8ZM271.956 70C270.49 71.8 268.39 73.3333 265.656 74.6C262.99 75.8 260.023 76.4 256.756 76.4C252.29 76.4 248.29 75.3333 244.756 73.2C241.29 71.0667 238.556 67.9 236.556 63.7C234.623 59.5 233.656 54.4667 233.656 48.6C233.656 42.5333 234.656 37.3667 236.656 33.1C238.656 28.8333 241.456 25.6333 245.056 23.5C248.656 21.3 252.79 20.2 257.456 20.2C260.39 20.2 263.09 20.7 265.556 21.7C268.09 22.7 270.156 24.1333 271.756 26V0.299997H286.956V75.5H271.956V70ZM249.156 48.3C249.156 53.1 250.156 56.9667 252.156 59.9C254.223 62.8333 257.023 64.3 260.556 64.3C264.09 64.3 266.89 62.8333 268.956 59.9C271.023 56.9667 272.056 53.1 272.056 48.3C272.056 43.4333 271.023 39.5667 268.956 36.7C266.89 33.7667 264.09 32.3 260.556 32.3C257.023 32.3 254.223 33.7667 252.156 36.7C250.156 39.6333 249.156 43.5 249.156 48.3ZM332.001 42.7C332.001 39.5 330.934 36.8333 328.801 34.7C326.734 32.5667 324.101 31.5 320.901 31.5C317.634 31.5 314.867 32.6 312.601 34.8C310.401 36.9333 309.234 39.5667 309.101 42.7H332.001ZM321.201 76.6C315.667 76.6 310.867 75.4667 306.801 73.2C302.734 70.8667 299.601 67.6 297.401 63.4C295.267 59.2 294.201 54.2333 294.201 48.5C294.201 42.9 295.301 37.9667 297.501 33.7C299.701 29.4333 302.767 26.1333 306.701 23.8C310.701 21.4 315.334 20.2 320.601 20.2C325.534 20.2 329.934 21.2667 333.801 23.4C337.667 25.4667 340.701 28.6 342.901 32.8C345.167 36.9333 346.301 41.9667 346.301 47.9V52.1H309.101C309.101 56.1667 310.201 59.4 312.401 61.8C314.601 64.1333 317.534 65.3 321.201 65.3C324.067 65.3 326.401 64.6667 328.201 63.4C330.001 62.1333 331.234 60.4 331.901 58.2L345.701 60.7C344.434 65.5667 341.667 69.4333 337.401 72.3C333.134 75.1667 327.734 76.6 321.201 76.6ZM368.434 0.299997V75.5H353.334V0.299997H368.434Z" fill="black"/>
</svg>
