<svg width="228" height="47" viewBox="0 0 228 47" fill="none" xmlns="http://www.w3.org/2000/svg">
<path d="M0.64 2.38H11.2V46H0.64V2.38ZM38.92 2.38L24.88 24.1L38.62 46H26.44L12.94 24.1L26.5 2.38H38.92ZM90.4234 2.38H103.503V46H93.1834V19.18H92.8234L82.3834 45.7H75.7834L65.3434 19.06H64.9834V46H54.6634V2.38H67.7434L78.8434 29.38H79.3234L90.4234 2.38ZM124.104 46.6C120.704 46.6 117.764 45.9 115.284 44.5C112.804 43.1 110.884 41.14 109.524 38.62C108.204 36.06 107.544 33.1 107.544 29.74C107.544 26.38 108.204 23.44 109.524 20.92C110.884 18.36 112.804 16.38 115.284 14.98C117.764 13.54 120.704 12.82 124.104 12.82C127.504 12.82 130.444 13.54 132.924 14.98C135.404 16.38 137.304 18.36 138.624 20.92C139.984 23.44 140.664 26.38 140.664 29.74C140.664 33.1 139.984 36.06 138.624 38.62C137.304 41.14 135.404 43.1 132.924 44.5C130.444 45.9 127.504 46.6 124.104 46.6ZM124.164 38.74C126.004 38.74 127.444 37.92 128.484 36.28C129.524 34.64 130.044 32.44 130.044 29.68C130.044 26.92 129.524 24.72 128.484 23.08C127.444 21.4 126.004 20.56 124.164 20.56C122.284 20.56 120.804 21.4 119.724 23.08C118.684 24.72 118.164 26.92 118.164 29.68C118.164 32.44 118.684 34.64 119.724 36.28C120.804 37.92 122.284 38.74 124.164 38.74ZM156.663 46.48C154.183 46.48 151.943 45.84 149.943 44.56C147.983 43.28 146.423 41.38 145.263 38.86C144.143 36.34 143.583 33.28 143.583 29.68C143.583 25.96 144.183 22.84 145.383 20.32C146.583 17.8 148.203 15.92 150.243 14.68C152.283 13.44 154.563 12.82 157.083 12.82C159.003 12.82 160.743 13.14 162.303 13.78C163.863 14.38 165.123 15.26 166.083 16.42V0.879998H176.463V46H166.143V42.82C165.343 43.86 164.083 44.74 162.363 45.46C160.683 46.14 158.783 46.48 156.663 46.48ZM166.263 29.62C166.263 26.94 165.723 24.84 164.643 23.32C163.603 21.76 162.143 20.98 160.263 20.98C158.343 20.98 156.863 21.76 155.823 23.32C154.783 24.88 154.263 26.98 154.263 29.62C154.263 32.3 154.783 34.42 155.823 35.98C156.863 37.54 158.343 38.32 160.263 38.32C162.143 38.32 163.603 37.54 164.643 35.98C165.723 34.42 166.263 32.3 166.263 29.62ZM202.992 26.08C202.952 24.4 202.372 23.04 201.252 22C200.172 20.92 198.772 20.38 197.052 20.38C195.332 20.38 193.892 20.94 192.732 22.06C191.572 23.14 190.952 24.48 190.872 26.08H202.992ZM197.412 46.66C193.972 46.66 190.972 45.98 188.412 44.62C185.892 43.26 183.952 41.32 182.592 38.8C181.232 36.24 180.552 33.22 180.552 29.74C180.552 26.38 181.212 23.42 182.532 20.86C183.892 18.3 185.792 16.32 188.232 14.92C190.672 13.52 193.532 12.82 196.812 12.82C199.932 12.82 202.672 13.48 205.032 14.8C207.432 16.08 209.292 17.98 210.612 20.5C211.972 23.02 212.652 26.04 212.652 29.56V32.14H190.872V32.44C190.872 34.48 191.452 36.1 192.612 37.3C193.772 38.5 195.372 39.1 197.412 39.1C198.972 39.1 200.232 38.76 201.192 38.08C202.152 37.4 202.792 36.44 203.112 35.2L212.352 36.76C211.512 39.88 209.852 42.32 207.372 44.08C204.892 45.8 201.572 46.66 197.412 46.66ZM227.174 0.879998V46H216.734V0.879998H227.174Z" fill="black"/>
</svg>
