<svg width="239" height="74" viewBox="0 0 239 74" fill="none" xmlns="http://www.w3.org/2000/svg">
<path d="M16.2 0.799994V73.5H0.9V0.799994H16.2ZM62.1 73.5H43.9L19.8 36.8L43.6 0.799994H61.8L37.4 36.8L62.1 73.5ZM117.686 0.799994C125.819 0.799994 132.186 2.93333 136.786 7.2C141.386 11.4667 143.686 17.2333 143.686 24.5C143.686 29.5 142.586 33.7667 140.386 37.3C138.186 40.8333 135.019 43.4667 130.886 45.2L146.286 73.5H129.286L115.586 47.7H104.286V73.5H88.9859V0.799994H117.686ZM114.786 35.4C123.519 35.4 127.886 31.7667 127.886 24.5C127.886 20.8333 126.753 18.0667 124.486 16.2C122.286 14.2667 119.019 13.3 114.686 13.3H104.286V35.4H114.786ZM217.681 73.5H201.181L195.781 56.9H169.581L164.181 73.5H147.681L172.781 0.799994H192.581L217.681 73.5ZM173.481 44.9H191.981L182.981 17.4H182.481L173.481 44.9ZM238.856 0.799994V73.5H223.556V0.799994H238.856Z" fill="black"/>
</svg>
