<svg width="149" height="44" viewBox="0 0 149 44" fill="none" xmlns="http://www.w3.org/2000/svg">
<path d="M0.64 0.379997H11.2V44H0.64V0.379997ZM38.92 0.379997L24.88 22.1L38.62 44H26.44L12.94 22.1L26.5 0.379997H38.92ZM72.7234 0.379997C77.6034 0.379997 81.4634 1.68 84.3034 4.28C87.1834 6.88 88.6234 10.42 88.6234 14.9C88.6234 17.86 87.9634 20.42 86.6434 22.58C85.3234 24.7 83.4634 26.3 81.0634 27.38L90.1234 44H78.6034L70.6234 29.06H65.2234V44H54.6634V0.379997H72.7234ZM70.4434 20.78C75.2834 20.78 77.7034 18.82 77.7034 14.9C77.7034 10.86 75.2834 8.84 70.4434 8.84H65.2234V20.78H70.4434ZM134.741 44H123.401L120.521 34.82H105.461L102.581 44H91.2409L105.941 0.379997H119.981L134.741 44ZM107.981 26.84H118.001L113.141 11.36H112.781L107.981 26.84ZM148.661 0.379997V44H138.101V0.379997H148.661Z" fill="black"/>
</svg>
