<svg width="355" height="78" viewBox="0 0 355 78" fill="none" xmlns="http://www.w3.org/2000/svg">
<path d="M16.2 3.29999V76H0.9V3.29999H16.2ZM62.1 76H43.9L19.8 39.3L43.6 3.29999H61.8L37.4 39.3L62.1 76ZM138.486 29.6C137.353 25.4667 135.353 22.1667 132.486 19.7C129.619 17.1667 126.086 15.9 121.886 15.9C116.219 15.9 111.686 18 108.286 22.2C104.953 26.4 103.286 32.2 103.286 39.6C103.286 47.2 104.953 53.0667 108.286 57.2C111.686 61.3333 116.186 63.4 121.786 63.4C125.719 63.4 129.219 62.2 132.286 59.8C135.419 57.3333 137.519 54.1667 138.586 50.3L153.086 54.2C152.086 58.3333 150.219 62.1333 147.486 65.6C144.819 69 141.286 71.7667 136.886 73.9C132.486 75.9667 127.386 77 121.586 77C115.053 77 109.219 75.5333 104.086 72.6C98.9526 69.6 94.9193 65.3 91.9859 59.7C89.1193 54.0333 87.6859 47.3333 87.6859 39.6C87.6859 31.8667 89.1526 25.2 92.0859 19.6C95.0859 13.9333 99.1526 9.63333 104.286 6.7C109.419 3.76666 115.186 2.3 121.586 2.3C129.986 2.3 136.919 4.36666 142.386 8.5C147.853 12.5667 151.353 18.3 152.886 25.7L138.486 29.6ZM176.052 0.799997V76H160.952V0.799997H176.052ZM209.868 77.1C204.468 77.1 199.735 75.9333 195.668 73.6C191.601 71.2 188.468 67.8667 186.268 63.6C184.135 59.3333 183.068 54.4333 183.068 48.9C183.068 43.3 184.168 38.3667 186.368 34.1C188.568 29.8333 191.668 26.5333 195.668 24.2C199.735 21.8667 204.468 20.7 209.868 20.7C215.335 20.7 220.101 21.9 224.168 24.3C228.235 26.6333 231.335 29.9333 233.468 34.2C235.668 38.4 236.768 43.3 236.768 48.9C236.768 54.5 235.668 59.4333 233.468 63.7C231.268 67.9 228.135 71.2 224.068 73.6C220.001 75.9333 215.268 77.1 209.868 77.1ZM209.968 65.3C213.568 65.3 216.368 63.7667 218.368 60.7C220.368 57.6333 221.368 53.6667 221.368 48.8C221.368 43.9333 220.368 39.9667 218.368 36.9C216.368 33.8333 213.568 32.3 209.968 32.3C206.301 32.3 203.468 33.8333 201.468 36.9C199.468 39.9667 198.468 43.9333 198.468 48.8C198.468 53.7333 199.468 57.7333 201.468 60.8C203.468 63.8 206.301 65.3 209.968 65.3ZM279.464 76V70.3C277.797 72.4333 275.597 74.0333 272.864 75.1C270.197 76.1667 267.164 76.7 263.764 76.7C257.497 76.7 252.597 74.8667 249.064 71.2C245.531 67.5333 243.764 62.5333 243.764 56.2V21.5H258.864V53.5C258.864 56.8333 259.731 59.4333 261.464 61.3C263.197 63.1667 265.564 64.1 268.564 64.1C271.631 64.1 274.097 63.1 275.964 61.1C277.831 59.1 278.764 56.4 278.764 53V21.5H293.864V76H279.464ZM339.241 70.5C337.775 72.3 335.675 73.8333 332.941 75.1C330.275 76.3 327.308 76.9 324.041 76.9C319.575 76.9 315.575 75.8333 312.041 73.7C308.575 71.5667 305.841 68.4 303.841 64.2C301.908 60 300.941 54.9667 300.941 49.1C300.941 43.0333 301.941 37.8667 303.941 33.6C305.941 29.3333 308.741 26.1333 312.341 24C315.941 21.8 320.075 20.7 324.741 20.7C327.675 20.7 330.375 21.2 332.841 22.2C335.375 23.2 337.441 24.6333 339.041 26.5V0.799997H354.241V76H339.241V70.5ZM316.441 48.8C316.441 53.6 317.441 57.4667 319.441 60.4C321.508 63.3333 324.308 64.8 327.841 64.8C331.375 64.8 334.175 63.3333 336.241 60.4C338.308 57.4667 339.341 53.6 339.341 48.8C339.341 43.9333 338.308 40.0667 336.241 37.2C334.175 34.2667 331.375 32.8 327.841 32.8C324.308 32.8 321.508 34.2667 319.441 37.2C317.441 40.1333 316.441 44 316.441 48.8Z" fill="white"/>
</svg>
