<svg width="219" height="47" viewBox="0 0 219 47" fill="none" xmlns="http://www.w3.org/2000/svg">
<path d="M0.14 2.38H10.7V46H0.14V2.38ZM38.42 2.38L24.38 24.1L38.12 46H25.94L12.44 24.1L26 2.38H38.42ZM83.7434 18.64C83.2634 16.32 82.2234 14.48 80.6234 13.12C79.0234 11.72 77.0434 11.02 74.6834 11.02C71.4834 11.02 68.9834 12.18 67.1834 14.5C65.3834 16.82 64.4834 20.04 64.4834 24.16C64.4834 28.44 65.3434 31.72 67.0634 34C68.8234 36.24 71.2634 37.36 74.3834 37.36C76.7834 37.36 78.7834 36.72 80.3834 35.44C81.9834 34.12 83.1034 32.36 83.7434 30.16L93.8234 32.86C92.8234 36.94 90.6634 40.26 87.3434 42.82C84.0234 45.34 79.7034 46.6 74.3834 46.6C70.4234 46.6 66.8834 45.72 63.7634 43.96C60.6434 42.2 58.1834 39.64 56.3834 36.28C54.6234 32.88 53.7434 28.84 53.7434 24.16C53.7434 19.48 54.6434 15.46 56.4434 12.1C58.2834 8.74 60.7834 6.18 63.9434 4.42C67.1034 2.66 70.6834 1.78 74.6834 1.78C79.6834 1.78 83.8834 3.02 87.2834 5.5C90.6834 7.94 92.8634 11.46 93.8234 16.06L83.7434 18.64ZM108.959 0.879998V46H98.5189V0.879998H108.959ZM129.522 46.6C126.122 46.6 123.182 45.9 120.702 44.5C118.222 43.1 116.302 41.14 114.942 38.62C113.622 36.06 112.962 33.1 112.962 29.74C112.962 26.38 113.622 23.44 114.942 20.92C116.302 18.36 118.222 16.38 120.702 14.98C123.182 13.54 126.122 12.82 129.522 12.82C132.922 12.82 135.862 13.54 138.342 14.98C140.822 16.38 142.722 18.36 144.042 20.92C145.402 23.44 146.082 26.38 146.082 29.74C146.082 33.1 145.402 36.06 144.042 38.62C142.722 41.14 140.822 43.1 138.342 44.5C135.862 45.9 132.922 46.6 129.522 46.6ZM129.582 38.74C131.422 38.74 132.862 37.92 133.902 36.28C134.942 34.64 135.462 32.44 135.462 29.68C135.462 26.92 134.942 24.72 133.902 23.08C132.862 21.4 131.422 20.56 129.582 20.56C127.702 20.56 126.222 21.4 125.142 23.08C124.102 24.72 123.582 26.92 123.582 29.68C123.582 32.44 124.102 34.64 125.142 36.28C126.222 37.92 127.702 38.74 129.582 38.74ZM171.741 46V42.52C170.781 43.8 169.441 44.78 167.721 45.46C166.041 46.1 164.141 46.42 162.021 46.42C158.341 46.42 155.421 45.3 153.261 43.06C151.141 40.82 150.081 37.84 150.081 34.12V13.3H160.521V32.08C160.521 33.88 160.981 35.3 161.901 36.34C162.821 37.38 164.101 37.9 165.741 37.9C167.381 37.9 168.701 37.38 169.701 36.34C170.701 35.26 171.201 33.8 171.201 31.96V13.3H181.641V46H171.741ZM198.937 46.48C196.457 46.48 194.217 45.84 192.217 44.56C190.257 43.28 188.697 41.38 187.537 38.86C186.417 36.34 185.857 33.28 185.857 29.68C185.857 25.96 186.457 22.84 187.657 20.32C188.857 17.8 190.477 15.92 192.517 14.68C194.557 13.44 196.837 12.82 199.357 12.82C201.277 12.82 203.017 13.14 204.577 13.78C206.137 14.38 207.397 15.26 208.357 16.42V0.879998H218.737V46H208.417V42.82C207.617 43.86 206.357 44.74 204.637 45.46C202.957 46.14 201.057 46.48 198.937 46.48ZM208.537 29.62C208.537 26.94 207.997 24.84 206.917 23.32C205.877 21.76 204.417 20.98 202.537 20.98C200.617 20.98 199.137 21.76 198.097 23.32C197.057 24.88 196.537 26.98 196.537 29.62C196.537 32.3 197.057 34.42 198.097 35.98C199.137 37.54 200.617 38.32 202.537 38.32C204.417 38.32 205.877 37.54 206.917 35.98C207.997 34.42 208.537 32.3 208.537 29.62Z" fill="white"/>
</svg>
