<svg width="278" height="75" viewBox="0 0 278 75" fill="none" xmlns="http://www.w3.org/2000/svg">
<path d="M15.7 1.29999V74H0.4V1.29999H15.7ZM61.6 74H43.4L19.3 37.3L43.1 1.29999H61.3L36.9 37.3L61.6 74ZM128.686 23.1C128.019 19.7 126.586 17.2 124.386 15.6C122.253 13.9333 119.286 13.1 115.486 13.1C111.819 13.1 108.953 13.9 106.886 15.5C104.819 17.0333 103.786 19 103.786 21.4C103.786 23.7333 104.786 25.6 106.786 27C108.853 28.3333 111.686 29.4333 115.286 30.3L121.786 31.8C136.319 35.0667 143.619 42.2 143.686 53.2C143.619 59.9333 141.086 65.2667 136.086 69.2C131.086 73.0667 124.186 75 115.386 75C106.653 75 99.7859 73.1333 94.7859 69.4C89.7859 65.6 86.7193 60.1 85.5859 52.9L100.186 50.1C100.786 53.8333 102.453 56.7667 105.186 58.9C107.919 61.0333 111.253 62.1 115.186 62.1C119.053 62.1 122.153 61.2667 124.486 59.6C126.886 57.9333 128.086 55.8 128.086 53.2C128.086 50.9333 127.053 49.1 124.986 47.7C122.986 46.3 119.919 45.1 115.786 44.1L107.886 42.1C94.6193 38.9 87.9859 32.3 87.9859 22.3C87.9859 18.0333 89.1859 14.2333 91.5859 10.9C93.9859 7.56666 97.2859 4.96666 101.486 3.09999C105.686 1.23333 110.386 0.299995 115.586 0.299995C123.519 0.299995 129.786 2.06666 134.386 5.6C138.986 9.13333 141.886 14.1333 143.086 20.6L128.686 23.1ZM179.784 1.29999C185.184 1.29999 189.817 2.36666 193.684 4.49999C197.617 6.56666 200.617 9.46666 202.684 13.2C204.75 16.8667 205.784 21.1 205.784 25.9C205.784 30.7667 204.717 35.0333 202.584 38.7C200.517 42.3667 197.484 45.2333 193.484 47.3C189.55 49.3667 184.85 50.4 179.384 50.4H166.384V74H151.084V1.29999H179.784ZM176.884 38.1C181.15 38.1 184.384 37 186.584 34.8C188.85 32.5333 189.984 29.5667 189.984 25.9C189.984 22.1667 188.85 19.2333 186.584 17.1C184.317 14.9 181.05 13.8 176.784 13.8H166.384V38.1H176.884ZM262.498 27.6C261.364 23.4667 259.364 20.1667 256.498 17.7C253.631 15.1667 250.098 13.9 245.898 13.9C240.231 13.9 235.698 16 232.298 20.2C228.964 24.4 227.298 30.2 227.298 37.6C227.298 45.2 228.964 51.0667 232.298 55.2C235.698 59.3333 240.198 61.4 245.798 61.4C249.731 61.4 253.231 60.2 256.298 57.8C259.431 55.3333 261.531 52.1667 262.598 48.3L277.098 52.2C276.098 56.3333 274.231 60.1333 271.498 63.6C268.831 67 265.298 69.7667 260.898 71.9C256.498 73.9667 251.398 75 245.598 75C239.064 75 233.231 73.5333 228.098 70.6C222.964 67.6 218.931 63.3 215.998 57.7C213.131 52.0333 211.698 45.3333 211.698 37.6C211.698 29.8667 213.164 23.2 216.098 17.6C219.098 11.9333 223.164 7.63333 228.298 4.7C233.431 1.76666 239.198 0.299995 245.598 0.299995C253.998 0.299995 260.931 2.36666 266.398 6.5C271.864 10.5667 275.364 16.3 276.898 23.7L262.498 27.6Z" fill="white"/>
</svg>
