<svg width="133" height="22" viewBox="0 0 133 22" fill="none" xmlns="http://www.w3.org/2000/svg">
<path d="M0 11.0592V1.75566H10.008V11.064H0V11.0592ZM5.30462 15.5921V18.8695H16.6606V21.1141H2.4826V13.3281H16.3017V15.597H5.30462V15.5921ZM2.82202 8.81934H7.23444V3.97124H2.82202V8.81934ZM13.3343 12.1694V0.5H16.2048V12.1694H13.3343Z" fill="#0B0B0B"/>
<path d="M20.0161 9.41829V6.18945H23.2697V9.41829H20.0161ZM20.0161 18.2176V14.9888H23.2697V18.2176H20.0161Z" fill="#0B0B0B"/>
<path d="M25.6309 12.531V10.3154H44.4152V12.531H25.6309ZM28.7777 2.48576C29.6069 1.88459 30.5864 1.46765 31.721 1.24464C32.8556 1.02163 33.9612 0.905273 35.0376 0.905273C36.114 0.905273 37.2244 1.01678 38.3639 1.24464C39.5033 1.4725 40.4877 1.88459 41.3168 2.48576C42.146 3.08692 42.5581 3.90625 42.5581 4.93405C42.5581 5.96184 42.146 6.77633 41.3168 7.36779C40.4877 7.96411 39.5082 8.37135 38.3736 8.59921C37.239 8.82707 36.1286 8.93858 35.0327 8.93858C33.9369 8.93858 32.8508 8.82707 31.7161 8.59921C30.5815 8.3762 29.6021 7.96411 28.7729 7.36779C27.9438 6.77148 27.5316 5.96184 27.5316 4.93405C27.5316 3.90625 27.9438 3.08692 28.7729 2.48576H28.7777ZM27.8516 21.1122V14.1454H42.175V21.1122H27.8516ZM31.9489 6.44181C32.9284 6.67452 33.9563 6.79087 35.0376 6.79087C36.1189 6.79087 37.1468 6.67452 38.136 6.44181C39.1252 6.2091 39.6197 5.7049 39.6197 4.93405C39.6197 4.1632 39.1252 3.659 38.136 3.42629C37.1468 3.19358 36.114 3.07722 35.0376 3.07722C33.9612 3.07722 32.9332 3.19358 31.9489 3.42629C30.9694 3.659 30.4797 4.1632 30.4797 4.93405C30.4797 5.7049 30.9694 6.2091 31.9489 6.44181ZM30.6494 18.9208H39.353V16.3659H30.6494V18.9208Z" fill="#0B0B0B"/>
<path d="M59.7372 9.49092C60.1688 8.84128 60.3821 8.14315 60.3821 7.40624C60.3821 6.52873 60.0815 5.82091 59.4851 5.29247C58.8887 4.76402 58.1226 4.50223 57.1868 4.50223C56.2509 4.50223 55.4751 4.78826 54.9029 5.36034C54.3308 5.93242 54.0447 6.70326 54.0447 7.66804H50.7427C50.7427 6.47056 51.019 5.41852 51.5767 4.51192C52.1294 3.60533 52.9004 2.9072 53.8847 2.41269C54.869 1.91819 55.9891 1.67578 57.2352 1.67578C58.4814 1.67578 59.6257 1.91334 60.6003 2.38845C61.5749 2.86357 62.3362 3.52291 62.8841 4.36648C63.432 5.21005 63.7036 6.16997 63.7036 7.24625C63.7036 7.98316 63.5678 8.69583 63.2963 9.38427C63.0247 10.0727 62.5447 10.8338 61.8562 11.6677C61.1676 12.5064 60.2027 13.5197 58.9517 14.7172L55.6497 18.0963V18.2272H63.9945V21.1312H50.8445V18.6248L57.4971 12.0798C58.5541 11.0084 59.296 10.1454 59.7275 9.49092H59.7372Z" fill="#0B0B0B"/>
<path d="M66.3516 21.0479V17.5088H69.9154V21.0479H66.3516Z" fill="#0B0B0B"/>
<path d="M74.2689 20.3264C73.1586 19.5459 72.31 18.4017 71.7233 16.9085C71.1318 15.4153 70.8408 13.6264 70.8408 11.5514C70.8602 8.41949 71.5197 5.99059 72.8191 4.26467C74.1235 2.53874 75.937 1.67578 78.2595 1.67578C79.7918 1.67578 81.1106 2.06363 82.221 2.83933C83.3314 3.61502 84.1799 4.74463 84.7666 6.233C85.3582 7.72137 85.6491 9.49092 85.6491 11.5514C85.6491 13.6118 85.3533 15.4153 84.7666 16.9085C84.1751 18.4066 83.3265 19.5459 82.221 20.3264C81.1155 21.107 79.7918 21.4997 78.2595 21.4997C76.7273 21.4997 75.3793 21.107 74.2738 20.3264H74.2689ZM81.1058 16.7631C81.7943 15.5559 82.1337 13.8203 82.1337 11.5514C82.1337 9.28246 81.7895 7.59532 81.1058 6.38814C80.4173 5.18581 79.4669 4.5798 78.2547 4.5798C77.0425 4.5798 76.0679 5.18581 75.389 6.40268C74.7102 7.61471 74.3708 9.37457 74.3708 11.6823C74.3708 13.99 74.715 15.6238 75.3987 16.8019C76.0824 17.98 77.0376 18.5714 78.2498 18.5714C79.462 18.5714 80.4124 17.9703 81.1009 16.7631H81.1058Z" fill="#0B0B0B"/>
<path d="M101.248 8.51521C101.961 9.18909 102.315 10.0569 102.315 11.1235C102.315 11.7731 102.169 12.3452 101.883 12.8397C101.597 13.3342 101.2 13.7221 100.7 14.013V14.0323C101.311 14.2457 101.82 14.6432 102.227 15.2201C102.635 15.8019 102.838 16.4564 102.838 17.1788C102.838 18.4053 102.465 19.3701 101.723 20.0731C100.981 20.7761 99.8321 21.13 98.2805 21.13H93.3687V7.50195H98.1302C99.4927 7.50195 100.53 7.84132 101.243 8.51521H101.248ZM99.9824 12.8349C100.487 12.4034 100.744 11.8313 100.744 11.1186C100.744 10.4787 100.526 9.95994 100.089 9.5624C99.6527 9.16485 99.003 8.96123 98.1399 8.96123H95.0269V13.4797H98.0817C98.843 13.4797 99.4781 13.2663 99.9872 12.8349H99.9824ZM100.516 19.0113C101.015 18.575 101.267 17.9642 101.267 17.1739C101.267 16.534 101.015 16.0007 100.516 15.5692C100.016 15.1377 99.3036 14.9244 98.3775 14.9244H95.0221V19.6658H98.2853C99.2745 19.6658 100.016 19.4477 100.516 19.0113Z" fill="#0B0B0B"/>
<path d="M109.675 21.0183C109.108 21.2559 108.482 21.3722 107.808 21.3722C106.795 21.3722 105.961 21.091 105.306 20.5287C104.652 19.9663 104.322 19.1954 104.322 18.221C104.322 17.4986 104.511 16.9265 104.885 16.5144C105.258 16.1023 105.723 15.8066 106.271 15.6321C106.819 15.4575 107.488 15.3218 108.279 15.22L109.103 15.1279C109.627 15.0648 110.005 15.0115 110.228 14.9679C110.451 14.9243 110.625 14.8515 110.742 14.74C110.858 14.6334 110.921 14.4831 110.921 14.2795V14.2213C110.921 13.5474 110.737 13.0335 110.368 12.6747C110 12.3208 109.442 12.1414 108.691 12.1414C108.104 12.1414 107.585 12.2772 107.134 12.5535C106.683 12.8299 106.315 13.2274 106.029 13.751L104.564 13.1353C104.952 12.3451 105.52 11.7536 106.271 11.356C107.023 10.9585 107.871 10.7549 108.822 10.7549C109.985 10.7549 110.887 11.0603 111.532 11.676C112.177 12.2869 112.497 13.1935 112.497 14.3958V21.125H110.921V20.0778C110.659 20.4656 110.242 20.7759 109.675 21.0135V21.0183ZM109.467 19.6124C109.908 19.3845 110.262 19.0791 110.528 18.6912C110.79 18.3034 110.921 17.8864 110.921 17.4356V15.9908C110.795 16.1411 110.495 16.2526 110.019 16.3302C109.544 16.4029 108.938 16.4853 108.201 16.5726C107.474 16.6744 106.906 16.8489 106.494 17.1059C106.082 17.3628 105.874 17.7604 105.874 18.2985C105.874 18.8367 106.072 19.2439 106.465 19.5251C106.858 19.8063 107.382 19.9469 108.031 19.9469C108.545 19.9469 109.021 19.8354 109.467 19.6124Z" fill="#0B0B0B"/>
<path d="M118.442 12.1328C117.817 12.1328 117.298 12.2782 116.886 12.5642C116.474 12.8503 116.265 13.2139 116.265 13.6502C116.265 14.0381 116.401 14.3435 116.677 14.5665C116.954 14.7895 117.4 14.9786 118.025 15.1289L119.543 15.5022C120.455 15.7252 121.133 16.0694 121.58 16.5251C122.021 16.9809 122.244 17.5675 122.244 18.2801C122.244 18.8668 122.074 19.3904 121.74 19.8558C121.4 20.3164 120.93 20.68 120.324 20.9418C119.718 21.2036 119.024 21.3345 118.253 21.3345C117.216 21.3345 116.353 21.0969 115.664 20.6218C114.976 20.1467 114.544 19.4776 114.369 18.6147L115.868 18.2414C116.154 19.3807 116.944 19.9479 118.229 19.9479C118.942 19.9479 119.519 19.7976 119.965 19.4873C120.406 19.1819 120.629 18.8037 120.629 18.3529C120.629 17.6402 120.125 17.1651 119.112 16.9275L117.405 16.5154C115.591 16.0888 114.685 15.158 114.685 13.7229C114.685 13.1606 114.845 12.6564 115.174 12.2055C115.499 11.7546 115.945 11.4007 116.517 11.1437C117.085 10.8868 117.725 10.7607 118.438 10.7607C120.3 10.7607 121.512 11.5752 122.074 13.1993L120.649 13.592C120.261 12.6176 119.524 12.1279 118.438 12.1279L118.442 12.1328Z" fill="#0B0B0B"/>
<path d="M125.842 20.6916C125.124 20.2601 124.571 19.6493 124.193 18.8542C123.81 18.0591 123.621 17.1428 123.621 16.1053C123.621 15.0678 123.81 14.1418 124.193 13.3322C124.576 12.5177 125.114 11.8875 125.808 11.4366C126.501 10.9857 127.306 10.7627 128.218 10.7627C128.993 10.7627 129.711 10.9324 130.375 11.2766C131.04 11.6208 131.578 12.1735 132 12.9346C132.417 13.6958 132.63 14.68 132.63 15.8774V16.5513H125.206C125.245 17.6276 125.546 18.4566 126.118 19.0433C126.69 19.6299 127.447 19.9256 128.397 19.9256C129.061 19.9256 129.624 19.7802 130.084 19.4941C130.545 19.2081 130.899 18.8057 131.137 18.2966L132.451 18.9317C132.101 19.6687 131.583 20.2553 130.894 20.6868C130.206 21.1182 129.376 21.3316 128.402 21.3316C127.427 21.3316 126.579 21.1134 125.861 20.6868L125.842 20.6916ZM130.235 13.0316C129.721 12.4692 129.047 12.188 128.208 12.188C127.631 12.188 127.122 12.3238 126.671 12.6001C126.22 12.8765 125.871 13.2401 125.619 13.6958C125.366 14.1515 125.226 14.6509 125.187 15.1842H131.001C131.001 14.3115 130.744 13.5891 130.23 13.0268L130.235 13.0316Z" fill="#0B0B0B"/>
</svg>
