<svg width="126" height="22" viewBox="0 0 126 22" fill="none" xmlns="http://www.w3.org/2000/svg">
<path d="M0.630371 11.0614V1.75535H10.636V11.0614H0.630371ZM5.93376 15.5933V18.8698H17.2919V21.1139H3.1124V13.3249H16.9283V15.5933H5.93376ZM3.45173 8.82216H7.86314V3.97524H3.45173V8.82216ZM13.9616 12.1714V0.5H16.8314V12.1665H13.9616V12.1714Z" fill="#0B0B0B"/>
<path d="M20.6421 9.42235V6.18945H23.8949V9.42235H20.6421ZM20.6421 18.2195V14.9866H23.8949V18.2195H20.6421Z" fill="#0B0B0B"/>
<path d="M26.26 12.538V10.3181H45.0449V12.538H26.26ZM29.4062 2.49517C30.2351 1.89415 31.2144 1.47732 32.3487 1.25436C33.4831 1.0314 34.5884 0.919922 35.6646 0.919922C36.7407 0.919922 37.8509 1.0314 38.9901 1.25436C40.1293 1.48216 41.1134 1.89415 41.9423 2.49517C42.7713 3.09619 43.1833 3.91532 43.1833 4.94286C43.1833 5.97041 42.7713 6.78469 41.9423 7.37602C41.1134 7.97219 40.1341 8.37933 38.9998 8.60713C37.8654 8.83009 36.7553 8.94642 35.6597 8.94642C34.5641 8.94642 33.4782 8.83494 32.3439 8.60713C31.2095 8.38417 30.2303 7.97219 29.4013 7.37602C28.5724 6.77985 28.1603 5.97041 28.1603 4.94286C28.1603 3.91532 28.5724 3.09619 29.4013 2.49517H29.4062ZM28.4803 21.117V14.152H42.8004V21.117H28.4803ZM32.5766 6.45026C33.5558 6.68291 34.5835 6.79923 35.6646 6.79923C36.7456 6.79923 37.7733 6.68291 38.7622 6.45026C39.7512 6.2176 40.2456 5.71352 40.2456 4.94286C40.2456 4.1722 39.7512 3.66812 38.7622 3.43547C37.7733 3.20282 36.7407 3.08649 35.6646 3.08649C34.5884 3.08649 33.5607 3.20282 32.5766 3.43547C31.5973 3.66812 31.1077 4.1722 31.1077 4.94286C31.1077 5.71352 31.5973 6.2176 32.5766 6.45026ZM31.2725 18.9262H39.979V16.3719H31.2725V18.9262Z" fill="#0B0B0B"/>
<path d="M60.3589 9.49194C60.7904 8.84245 61.0037 8.1445 61.0037 7.40777C61.0037 6.53047 60.7031 5.82282 60.1069 5.29451C59.5057 4.7662 58.7447 4.50446 57.8091 4.50446C56.8734 4.50446 56.0978 4.79043 55.5258 5.36237C54.9538 5.9343 54.6677 6.70496 54.6677 7.6695H51.3665C51.3665 6.47231 51.6428 5.42053 52.2003 4.51416C52.7529 3.60778 53.5237 2.90983 54.5078 2.41544C55.4918 1.92106 56.6117 1.67871 57.8624 1.67871C59.1131 1.67871 60.2523 1.91621 61.2267 2.39121C62.2011 2.86621 62.9622 3.52539 63.51 4.36875C64.0577 5.21211 64.3292 6.1718 64.3292 7.24782C64.3292 7.98455 64.1935 8.70189 63.922 9.38531C63.6505 10.0736 63.1706 10.8345 62.4822 11.6682C61.7939 12.5019 60.8292 13.5197 59.5785 14.7169L56.2772 18.0952V18.2261H64.6201V21.1294H51.4731V18.6235L58.1242 12.0802C59.181 11.009 59.9226 10.1463 60.3541 9.49194H60.3589Z" fill="#0B0B0B"/>
<path d="M66.9717 21.047V17.5088H70.5347V21.047H66.9717Z" fill="#0B0B0B"/>
<path d="M74.8921 20.3267C73.782 19.5415 72.9337 18.4025 72.3422 16.9096C71.7508 15.4119 71.46 13.6283 71.46 11.549C71.4794 8.41784 72.1386 5.98954 73.4378 4.26404C74.7419 2.53853 76.5549 1.67578 78.8769 1.67578C80.4088 1.67578 81.7274 2.06353 82.8375 2.83904C83.9476 3.61455 84.796 4.74388 85.3874 6.23188C85.9788 7.71989 86.2697 9.49386 86.2697 11.549C86.2697 13.604 85.974 15.4119 85.3874 16.9096C84.796 18.4025 83.9476 19.5464 82.8375 20.3267C81.7274 21.1119 80.4088 21.4997 78.8769 21.4997C77.3451 21.4997 75.9974 21.1071 74.8921 20.3267ZM81.7274 16.7642C82.4158 15.5574 82.7551 13.8222 82.7551 11.549C82.7551 9.27575 82.4109 7.59387 81.7274 6.39183C81.039 5.18495 80.0889 4.58393 78.8769 4.58393C77.665 4.58393 76.6906 5.1898 76.012 6.40637C75.3333 7.6181 74.9939 9.38238 74.9939 11.6847C74.9939 13.987 75.3381 15.6252 76.0217 16.803C76.71 17.9808 77.6602 18.5721 78.8721 18.5721C80.084 18.5721 81.039 17.9711 81.7225 16.7642H81.7274Z" fill="#0B0B0B"/>
<path d="M105.568 7.28516H107.556V20.9147H106V10.5471H105.869L101.613 20.9147H100.115L95.8585 10.5471H95.7276V20.9147H94.1909V7.28516H96.1591L100.789 18.5882H100.939L105.568 7.28516Z" fill="#0B0B0B"/>
<path d="M109.888 7.03027H111.463V8.73639H109.888V7.03027ZM109.888 21.13V10.9127H111.463V21.13H109.888Z" fill="#0B0B0B"/>
<path d="M115.308 10.9129V11.9453C115.618 11.5721 116.025 11.2813 116.524 11.0729C117.024 10.8693 117.567 10.7627 118.153 10.7627C119.355 10.7627 120.276 11.0826 120.916 11.7272C121.561 12.3719 121.881 13.3364 121.881 14.6257V21.1303H120.305V14.7372C120.305 13.9374 120.097 13.3122 119.685 12.8614C119.273 12.4106 118.696 12.1877 117.959 12.1877C117.184 12.1877 116.558 12.4349 116.073 12.9293C115.594 13.4237 115.351 14.1071 115.351 14.9795V21.1303H113.776V10.9129H115.293H115.308Z" fill="#0B0B0B"/>
<path d="M124.213 7.03027H125.788V8.73639H124.213V7.03027ZM124.213 21.13V10.9127H125.788V21.13H124.213Z" fill="#0B0B0B"/>
</svg>
