<svg width="237" height="47" viewBox="0 0 237 47" fill="none" xmlns="http://www.w3.org/2000/svg">
<path d="M0.14 2.38H10.7V46H0.14V2.38ZM38.42 2.38L24.38 24.1L38.12 46H25.94L12.44 24.1L26 2.38H38.42ZM78.2234 16.06C78.0634 14.42 77.3834 13.08 76.1834 12.04C74.9834 11 73.3234 10.48 71.2034 10.48C69.2034 10.48 67.6834 10.88 66.6434 11.68C65.6034 12.48 65.0834 13.52 65.0834 14.8C65.0834 16 65.6234 16.96 66.7034 17.68C67.7834 18.36 69.3634 18.92 71.4434 19.36L75.2234 20.2C84.1034 22.16 88.5634 26.54 88.6034 33.34C88.5634 37.5 87.0234 40.74 83.9834 43.06C80.9434 45.38 76.6834 46.54 71.2034 46.54C65.7234 46.54 61.4234 45.34 58.3034 42.94C55.2234 40.5 53.3834 36.88 52.7834 32.08L62.6834 30.7C63.2434 35.46 66.0434 37.84 71.0834 37.84C73.1634 37.84 74.8034 37.42 76.0034 36.58C77.2434 35.74 77.8634 34.66 77.8634 33.34C77.8634 32.18 77.3034 31.22 76.1834 30.46C75.0634 29.7 73.3034 29.04 70.9034 28.48L66.3434 27.4C58.2234 25.56 54.1634 21.5 54.1634 15.22C54.1634 12.58 54.8834 10.24 56.3234 8.2C57.8034 6.16 59.8434 4.58 62.4434 3.46C65.0434 2.34 67.9834 1.78 71.2634 1.78C74.5434 1.78 77.3834 2.36 79.7834 3.52C82.2234 4.64 84.1434 6.18 85.5434 8.14C86.9434 10.1 87.7834 12.26 88.0634 14.62L78.2234 16.06ZM105.084 35.68C105.084 36.64 105.304 37.32 105.744 37.72C106.184 38.12 106.844 38.32 107.724 38.32C108.764 38.32 109.844 38.24 110.964 38.08V45.88C109.284 46.28 107.384 46.48 105.264 46.48C101.864 46.48 99.2238 45.66 97.3438 44.02C95.5038 42.34 94.6038 39.96 94.6438 36.88V20.92H90.3238V13.3H94.6438V4.84H105.084V13.3H110.964V20.92H105.084V35.68ZM136.644 46V42.52C135.684 43.8 134.344 44.78 132.624 45.46C130.944 46.1 129.044 46.42 126.924 46.42C123.244 46.42 120.324 45.3 118.164 43.06C116.044 40.82 114.984 37.84 114.984 34.12V13.3H125.424V32.08C125.424 33.88 125.884 35.3 126.804 36.34C127.724 37.38 129.004 37.9 130.644 37.9C132.284 37.9 133.604 37.38 134.604 36.34C135.604 35.26 136.104 33.8 136.104 31.96V13.3H146.544V46H136.644ZM163.839 46.48C161.359 46.48 159.119 45.84 157.119 44.56C155.159 43.28 153.599 41.38 152.439 38.86C151.319 36.34 150.759 33.28 150.759 29.68C150.759 25.96 151.359 22.84 152.559 20.32C153.759 17.8 155.379 15.92 157.419 14.68C159.459 13.44 161.739 12.82 164.259 12.82C166.179 12.82 167.919 13.14 169.479 13.78C171.039 14.38 172.299 15.26 173.259 16.42V0.879998H183.639V46H173.319V42.82C172.519 43.86 171.259 44.74 169.539 45.46C167.859 46.14 165.959 46.48 163.839 46.48ZM173.439 29.62C173.439 26.94 172.899 24.84 171.819 23.32C170.779 21.76 169.319 20.98 167.439 20.98C165.519 20.98 164.039 21.76 162.999 23.32C161.959 24.88 161.439 26.98 161.439 29.62C161.439 32.3 161.959 34.42 162.999 35.98C164.039 37.54 165.519 38.32 167.439 38.32C169.319 38.32 170.779 37.54 171.819 35.98C172.899 34.42 173.439 32.3 173.439 29.62ZM189.048 46L188.988 13.3H199.428L199.488 46H189.048ZM188.988 9.04V0.879998H199.428V9.04H188.988ZM220.049 46.6C216.649 46.6 213.709 45.9 211.229 44.5C208.749 43.1 206.829 41.14 205.469 38.62C204.149 36.06 203.489 33.1 203.489 29.74C203.489 26.38 204.149 23.44 205.469 20.92C206.829 18.36 208.749 16.38 211.229 14.98C213.709 13.54 216.649 12.82 220.049 12.82C223.449 12.82 226.389 13.54 228.869 14.98C231.349 16.38 233.249 18.36 234.569 20.92C235.929 23.44 236.609 26.38 236.609 29.74C236.609 33.1 235.929 36.06 234.569 38.62C233.249 41.14 231.349 43.1 228.869 44.5C226.389 45.9 223.449 46.6 220.049 46.6ZM220.109 38.74C221.949 38.74 223.389 37.92 224.429 36.28C225.469 34.64 225.989 32.44 225.989 29.68C225.989 26.92 225.469 24.72 224.429 23.08C223.389 21.4 221.949 20.56 220.109 20.56C218.229 20.56 216.749 21.4 215.669 23.08C214.629 24.72 214.109 26.92 214.109 29.68C214.109 32.44 214.629 34.64 215.669 36.28C216.749 37.92 218.229 38.74 220.109 38.74Z" fill="black"/>
</svg>
