<svg width="383" height="77" viewBox="0 0 383 77" fill="none" xmlns="http://www.w3.org/2000/svg">
<path d="M16.2 2.79999V75.5H0.9V2.79999H16.2ZM62.1 75.5H43.9L19.8 38.8L43.6 2.79999H61.8L37.4 38.8L62.1 75.5ZM129.186 24.6C128.519 21.2 127.086 18.7 124.886 17.1C122.753 15.4333 119.786 14.6 115.986 14.6C112.319 14.6 109.453 15.4 107.386 17C105.319 18.5333 104.286 20.5 104.286 22.9C104.286 25.2333 105.286 27.1 107.286 28.5C109.353 29.8333 112.186 30.9333 115.786 31.8L122.286 33.3C136.819 36.5667 144.119 43.7 144.186 54.7C144.119 61.4333 141.586 66.7667 136.586 70.7C131.586 74.5667 124.686 76.5 115.886 76.5C107.153 76.5 100.286 74.6333 95.2859 70.9C90.2859 67.1 87.2193 61.6 86.0859 54.4L100.686 51.6C101.286 55.3333 102.953 58.2667 105.686 60.4C108.419 62.5333 111.753 63.6 115.686 63.6C119.553 63.6 122.653 62.7667 124.986 61.1C127.386 59.4333 128.586 57.3 128.586 54.7C128.586 52.4333 127.553 50.6 125.486 49.2C123.486 47.8 120.419 46.6 116.286 45.6L108.386 43.6C95.1193 40.4 88.4859 33.8 88.4859 23.8C88.4859 19.5333 89.6859 15.7333 92.0859 12.4C94.4859 9.06666 97.7859 6.46666 101.986 4.59999C106.186 2.73333 110.886 1.8 116.086 1.8C124.019 1.8 130.286 3.56666 134.886 7.1C139.486 10.6333 142.386 15.6333 143.586 22.1L129.186 24.6ZM169.984 58.7C169.984 62.3 171.684 64.1 175.084 64.1C177.284 64.1 179.117 63.9333 180.584 63.6V75.2C178.184 75.9333 175.25 76.3 171.784 76.3C166.517 76.3 162.384 74.9667 159.384 72.3C156.384 69.5667 154.884 65.7 154.884 60.7V32.3H147.384V21H154.884V6.9H169.984V21H180.284V32.3H169.984V58.7ZM222.921 75.5V69.8C221.254 71.9333 219.054 73.5333 216.321 74.6C213.654 75.6667 210.621 76.2 207.221 76.2C200.954 76.2 196.054 74.3667 192.521 70.7C188.988 67.0333 187.221 62.0333 187.221 55.7V21H202.321V53C202.321 56.3333 203.188 58.9333 204.921 60.8C206.654 62.6667 209.021 63.6 212.021 63.6C215.088 63.6 217.554 62.6 219.421 60.6C221.288 58.6 222.221 55.9 222.221 52.5V21H237.321V75.5H222.921ZM282.698 70C281.232 71.8 279.132 73.3333 276.398 74.6C273.732 75.8 270.765 76.4 267.498 76.4C263.032 76.4 259.032 75.3333 255.498 73.2C252.032 71.0667 249.298 67.9 247.298 63.7C245.365 59.5 244.398 54.4667 244.398 48.6C244.398 42.5333 245.398 37.3667 247.398 33.1C249.398 28.8333 252.198 25.6333 255.798 23.5C259.398 21.3 263.532 20.2 268.198 20.2C271.132 20.2 273.832 20.7 276.298 21.7C278.832 22.7 280.898 24.1333 282.498 26V0.299997H297.698V75.5H282.698V70ZM259.898 48.3C259.898 53.1 260.898 56.9667 262.898 59.9C264.965 62.8333 267.765 64.3 271.298 64.3C274.832 64.3 277.632 62.8333 279.698 59.9C281.765 56.9667 282.798 53.1 282.798 48.3C282.798 43.4333 281.765 39.5667 279.698 36.7C277.632 33.7667 274.832 32.3 271.298 32.3C267.765 32.3 264.965 33.7667 262.898 36.7C260.898 39.6333 259.898 43.5 259.898 48.3ZM307.143 75.5V21H322.243V75.5H307.143ZM307.143 13.5V0.299997H322.243V13.5H307.143ZM356.059 76.6C350.659 76.6 345.926 75.4333 341.859 73.1C337.793 70.7 334.659 67.3667 332.459 63.1C330.326 58.8333 329.259 53.9333 329.259 48.4C329.259 42.8 330.359 37.8667 332.559 33.6C334.759 29.3333 337.859 26.0333 341.859 23.7C345.926 21.3667 350.659 20.2 356.059 20.2C361.526 20.2 366.293 21.4 370.359 23.8C374.426 26.1333 377.526 29.4333 379.659 33.7C381.859 37.9 382.959 42.8 382.959 48.4C382.959 54 381.859 58.9333 379.659 63.2C377.459 67.4 374.326 70.7 370.259 73.1C366.193 75.4333 361.459 76.6 356.059 76.6ZM356.159 64.8C359.759 64.8 362.559 63.2667 364.559 60.2C366.559 57.1333 367.559 53.1667 367.559 48.3C367.559 43.4333 366.559 39.4667 364.559 36.4C362.559 33.3333 359.759 31.8 356.159 31.8C352.493 31.8 349.659 33.3333 347.659 36.4C345.659 39.4667 344.659 43.4333 344.659 48.3C344.659 53.2333 345.659 57.2333 347.659 60.3C349.659 63.3 352.493 64.8 356.159 64.8Z" fill="black"/>
</svg>
