<svg width="369" height="78" viewBox="0 0 369 78" fill="none" xmlns="http://www.w3.org/2000/svg">
<path d="M16.2 3.29999V76H0.9V3.29999H16.2ZM62.1 76H43.9L19.8 39.3L43.6 3.29999H61.8L37.4 39.3L62.1 76ZM148.786 3.29999H167.786V76H152.886V28.7H152.286L133.486 75.6H123.286L104.486 28.5H103.886V76H88.9859V3.29999H107.886L127.986 52.1H128.786L148.786 3.29999ZM201.86 77.1C196.46 77.1 191.727 75.9333 187.66 73.6C183.593 71.2 180.46 67.8667 178.26 63.6C176.127 59.3333 175.06 54.4333 175.06 48.9C175.06 43.3 176.16 38.3667 178.36 34.1C180.56 29.8333 183.66 26.5333 187.66 24.2C191.727 21.8667 196.46 20.7 201.86 20.7C207.327 20.7 212.093 21.9 216.16 24.3C220.227 26.6333 223.327 29.9333 225.46 34.2C227.66 38.4 228.76 43.3 228.76 48.9C228.76 54.5 227.66 59.4333 225.46 63.7C223.26 67.9 220.127 71.2 216.06 73.6C211.993 75.9333 207.26 77.1 201.86 77.1ZM201.96 65.3C205.56 65.3 208.36 63.7667 210.36 60.7C212.36 57.6333 213.36 53.6667 213.36 48.8C213.36 43.9333 212.36 39.9667 210.36 36.9C208.36 33.8333 205.56 32.3 201.96 32.3C198.293 32.3 195.46 33.8333 193.46 36.9C191.46 39.9667 190.46 43.9333 190.46 48.8C190.46 53.7333 191.46 57.7333 193.46 60.8C195.46 63.8 198.293 65.3 201.96 65.3ZM271.956 70.5C270.49 72.3 268.39 73.8333 265.656 75.1C262.99 76.3 260.023 76.9 256.756 76.9C252.29 76.9 248.29 75.8333 244.756 73.7C241.29 71.5667 238.556 68.4 236.556 64.2C234.623 60 233.656 54.9667 233.656 49.1C233.656 43.0333 234.656 37.8667 236.656 33.6C238.656 29.3333 241.456 26.1333 245.056 24C248.656 21.8 252.79 20.7 257.456 20.7C260.39 20.7 263.09 21.2 265.556 22.2C268.09 23.2 270.156 24.6333 271.756 26.5V0.799997H286.956V76H271.956V70.5ZM249.156 48.8C249.156 53.6 250.156 57.4667 252.156 60.4C254.223 63.3333 257.023 64.8 260.556 64.8C264.09 64.8 266.89 63.3333 268.956 60.4C271.023 57.4667 272.056 53.6 272.056 48.8C272.056 43.9333 271.023 40.0667 268.956 37.2C266.89 34.2667 264.09 32.8 260.556 32.8C257.023 32.8 254.223 34.2667 252.156 37.2C250.156 40.1333 249.156 44 249.156 48.8ZM332.001 43.2C332.001 40 330.934 37.3333 328.801 35.2C326.734 33.0667 324.101 32 320.901 32C317.634 32 314.867 33.1 312.601 35.3C310.401 37.4333 309.234 40.0667 309.101 43.2H332.001ZM321.201 77.1C315.667 77.1 310.867 75.9667 306.801 73.7C302.734 71.3667 299.601 68.1 297.401 63.9C295.267 59.7 294.201 54.7333 294.201 49C294.201 43.4 295.301 38.4667 297.501 34.2C299.701 29.9333 302.767 26.6333 306.701 24.3C310.701 21.9 315.334 20.7 320.601 20.7C325.534 20.7 329.934 21.7667 333.801 23.9C337.667 25.9667 340.701 29.1 342.901 33.3C345.167 37.4333 346.301 42.4667 346.301 48.4V52.6H309.101C309.101 56.6667 310.201 59.9 312.401 62.3C314.601 64.6333 317.534 65.8 321.201 65.8C324.067 65.8 326.401 65.1667 328.201 63.9C330.001 62.6333 331.234 60.9 331.901 58.7L345.701 61.2C344.434 66.0667 341.667 69.9333 337.401 72.8C333.134 75.6667 327.734 77.1 321.201 77.1ZM368.434 0.799997V76H353.334V0.799997H368.434Z" fill="#FE2E36"/>
</svg>
