<svg width="94" height="20" viewBox="0 0 94 20" fill="none" xmlns="http://www.w3.org/2000/svg">
<path d="M0.556 1.552H4.78V19H0.556V1.552ZM15.868 1.552L10.252 10.24L15.748 19H10.876L5.476 10.24L10.9 1.552H15.868ZM24.2489 10.336V13.552H16.1849V10.336H24.2489ZM40.5016 1.552H45.7336V19H41.6056V8.272H41.4616L37.2856 18.88H34.6456L30.4696 8.224H30.3256V19H26.1976V1.552H31.4296L35.8696 12.352H36.0616L40.5016 1.552ZM53.4938 19.24C52.1338 19.24 50.9578 18.96 49.9658 18.4C48.9738 17.84 48.2058 17.056 47.6618 16.048C47.1338 15.024 46.8698 13.84 46.8698 12.496C46.8698 11.152 47.1338 9.976 47.6618 8.968C48.2058 7.944 48.9738 7.152 49.9658 6.592C50.9578 6.016 52.1338 5.728 53.4938 5.728C54.8538 5.728 56.0298 6.016 57.0218 6.592C58.0138 7.152 58.7738 7.944 59.3018 8.968C59.8458 9.976 60.1178 11.152 60.1178 12.496C60.1178 13.84 59.8458 15.024 59.3018 16.048C58.7738 17.056 58.0138 17.84 57.0218 18.4C56.0298 18.96 54.8538 19.24 53.4938 19.24ZM53.5178 16.096C54.2538 16.096 54.8298 15.768 55.2458 15.112C55.6618 14.456 55.8698 13.576 55.8698 12.472C55.8698 11.368 55.6618 10.488 55.2458 9.832C54.8298 9.16 54.2538 8.824 53.5178 8.824C52.7658 8.824 52.1738 9.16 51.7418 9.832C51.3258 10.488 51.1178 11.368 51.1178 12.472C51.1178 13.576 51.3258 14.456 51.7418 15.112C52.1738 15.768 52.7658 16.096 53.5178 16.096ZM66.0376 19.192C65.0456 19.192 64.1496 18.936 63.3496 18.424C62.5656 17.912 61.9416 17.152 61.4776 16.144C61.0296 15.136 60.8056 13.912 60.8056 12.472C60.8056 10.984 61.0456 9.736 61.5256 8.728C62.0056 7.72 62.6536 6.968 63.4696 6.472C64.2856 5.976 65.1976 5.728 66.2056 5.728C66.9736 5.728 67.6696 5.856 68.2936 6.112C68.9176 6.352 69.4216 6.704 69.8056 7.168V0.951999H73.9576V19H69.8296V17.728C69.5096 18.144 69.0056 18.496 68.3176 18.784C67.6456 19.056 66.8856 19.192 66.0376 19.192ZM69.8776 12.448C69.8776 11.376 69.6616 10.536 69.2296 9.928C68.8136 9.304 68.2296 8.992 67.4776 8.992C66.7096 8.992 66.1176 9.304 65.7016 9.928C65.2856 10.552 65.0776 11.392 65.0776 12.448C65.0776 13.52 65.2856 14.368 65.7016 14.992C66.1176 15.616 66.7096 15.928 67.4776 15.928C68.2296 15.928 68.8136 15.616 69.2296 14.992C69.6616 14.368 69.8776 13.52 69.8776 12.448ZM84.0889 11.032C84.0729 10.36 83.8409 9.816 83.3929 9.4C82.9609 8.968 82.4009 8.752 81.7129 8.752C81.0249 8.752 80.4489 8.976 79.9849 9.424C79.5209 9.856 79.2729 10.392 79.2409 11.032H84.0889ZM81.8569 19.264C80.4809 19.264 79.2809 18.992 78.2569 18.448C77.2489 17.904 76.4729 17.128 75.9289 16.12C75.3849 15.096 75.1129 13.888 75.1129 12.496C75.1129 11.152 75.3769 9.968 75.9049 8.944C76.4489 7.92 77.2089 7.128 78.1849 6.568C79.1609 6.008 80.3049 5.728 81.6169 5.728C82.8649 5.728 83.9609 5.992 84.9049 6.52C85.8649 7.032 86.6089 7.792 87.1369 8.8C87.6809 9.808 87.9529 11.016 87.9529 12.424V13.456H79.2409V13.576C79.2409 14.392 79.4729 15.04 79.9369 15.52C80.4009 16 81.0409 16.24 81.8569 16.24C82.4809 16.24 82.9849 16.104 83.3689 15.832C83.7529 15.56 84.0089 15.176 84.1369 14.68L87.8329 15.304C87.4969 16.552 86.8329 17.528 85.8409 18.232C84.8489 18.92 83.5209 19.264 81.8569 19.264ZM93.2817 0.951999V19H89.1057V0.951999H93.2817Z" fill="#FF3333"/>
</svg>
