<svg width="69" height="19" viewBox="0 0 69 19" fill="none" xmlns="http://www.w3.org/2000/svg">
<path d="M0.556 0.551999H4.78V18H0.556V0.551999ZM15.868 0.551999L10.252 9.24L15.748 18H10.876L5.476 9.24L10.9 0.551999H15.868ZM28.4294 0.551999C30.3814 0.551999 31.9254 1.072 33.0614 2.112C34.2134 3.152 34.7894 4.568 34.7894 6.36C34.7894 7.544 34.5254 8.568 33.9974 9.432C33.4694 10.28 32.7254 10.92 31.7654 11.352L35.3894 18H30.7814L27.5894 12.024H25.4294V18H21.2054V0.551999H28.4294ZM27.5174 8.712C29.4534 8.712 30.4214 7.928 30.4214 6.36C30.4214 4.744 29.4534 3.936 27.5174 3.936H25.4294V8.712H27.5174ZM52.7564 18H48.2204L47.0684 14.328H41.0444L39.8924 18H35.3564L41.2364 0.551999H46.8524L52.7564 18ZM42.0524 11.136H46.0604L44.1164 4.944H43.9724L42.0524 11.136ZM64.3921 6.432C64.2161 5.68 63.8321 5.088 63.2401 4.656C62.6641 4.224 61.9361 4.008 61.0561 4.008C59.7761 4.008 58.7681 4.472 58.0321 5.4C57.2961 6.312 56.9281 7.592 56.9281 9.24C56.9281 10.92 57.2881 12.224 58.0081 13.152C58.7281 14.08 59.7441 14.544 61.0561 14.544C62.1921 14.544 63.0641 14.28 63.6721 13.752C64.2961 13.208 64.6241 12.464 64.6561 11.52H61.2001V8.448H68.7121V10.776C68.7121 12.312 68.3841 13.64 67.7281 14.76C67.0881 15.88 66.1841 16.744 65.0161 17.352C63.8481 17.944 62.5121 18.24 61.0081 18.24C59.3441 18.24 57.8801 17.88 56.6161 17.16C55.3521 16.44 54.3681 15.408 53.6641 14.064C52.9761 12.704 52.6321 11.112 52.6321 9.288C52.6321 7.448 52.9921 5.848 53.7121 4.488C54.4481 3.128 55.4481 2.096 56.7121 1.392C57.9761 0.671999 59.3921 0.311999 60.9601 0.311999C62.9441 0.311999 64.5761 0.767999 65.8561 1.68C67.1521 2.592 68.0321 3.84 68.4961 5.424L64.3921 6.432Z" fill="#FF3333"/>
</svg>
