<svg width="285" height="75" viewBox="0 0 285 75" fill="none" xmlns="http://www.w3.org/2000/svg">
<path d="M16.2 1.29999V74H0.9V1.29999H16.2ZM62.1 74H43.9L19.8 37.3L43.6 1.29999H61.8L37.4 37.3L62.1 74ZM117.686 1.29999C125.819 1.29999 132.186 3.43333 136.786 7.7C141.386 11.9667 143.686 17.7333 143.686 25C143.686 30 142.586 34.2667 140.386 37.8C138.186 41.3333 135.019 43.9667 130.886 45.7L146.286 74H129.286L115.586 48.2H104.286V74H88.9859V1.29999H117.686ZM114.786 35.9C123.519 35.9 127.886 32.2667 127.886 25C127.886 21.3333 126.753 18.5667 124.486 16.7C122.286 14.7667 119.019 13.8 114.686 13.8H104.286V35.9H114.786ZM217.681 74H201.181L195.781 57.4H169.581L164.181 74H147.681L172.781 1.29999H192.581L217.681 74ZM173.481 45.4H191.981L182.981 17.9H182.481L173.481 45.4ZM269.138 25.8C268.138 22.2667 266.205 19.4 263.338 17.2C260.472 15 257.072 13.9 253.138 13.9C247.472 13.9 242.938 16 239.538 20.2C236.138 24.3333 234.438 30.1333 234.438 37.6C234.438 45.1333 236.105 51 239.438 55.2C242.838 59.3333 247.438 61.4 253.238 61.4C258.305 61.4 262.305 60.1 265.238 57.5C268.172 54.8333 269.705 51.2333 269.838 46.7H254.238V35.1H284.638V44.2C284.638 50.4667 283.305 55.9333 280.638 60.6C277.972 65.2667 274.238 68.8333 269.438 71.3C264.705 73.7667 259.272 75 253.138 75C246.338 75 240.338 73.5 235.138 70.5C230.005 67.4333 226.005 63.1 223.138 57.5C220.272 51.8333 218.838 45.2333 218.838 37.7C218.838 30.0333 220.305 23.4 223.238 17.8C226.238 12.1333 230.305 7.8 235.438 4.8C240.638 1.8 246.438 0.299995 252.838 0.299995C260.838 0.299995 267.405 2.16666 272.538 5.89999C277.738 9.56666 281.438 14.6667 283.638 21.2L269.138 25.8Z" fill="#FE2E36"/>
</svg>
