<svg width="239" height="73" viewBox="0 0 239 73" fill="none" xmlns="http://www.w3.org/2000/svg">
<path d="M16.2 0.299994V73H0.9V0.299994H16.2ZM62.1 73H43.9L19.8 36.3L43.6 0.299994H61.8L37.4 36.3L62.1 73ZM117.686 0.299994C125.819 0.299994 132.186 2.43333 136.786 6.7C141.386 10.9667 143.686 16.7333 143.686 24C143.686 29 142.586 33.2667 140.386 36.8C138.186 40.3333 135.019 42.9667 130.886 44.7L146.286 73H129.286L115.586 47.2H104.286V73H88.9859V0.299994H117.686ZM114.786 34.9C123.519 34.9 127.886 31.2667 127.886 24C127.886 20.3333 126.753 17.5667 124.486 15.7C122.286 13.7667 119.019 12.8 114.686 12.8H104.286V34.9H114.786ZM217.681 73H201.181L195.781 56.4H169.581L164.181 73H147.681L172.781 0.299994H192.581L217.681 73ZM173.481 44.4H191.981L182.981 16.9H182.481L173.481 44.4ZM238.856 0.299994V73H223.556V0.299994H238.856Z" fill="#FE2E36"/>
</svg>
