<svg width="67" height="21" viewBox="0 0 67 21" fill="none" xmlns="http://www.w3.org/2000/svg">
<path d="M4.656 0.362748V20.7188H0.372V0.362748H4.656ZM17.508 20.7188H12.412L5.664 10.4427L12.328 0.362748H17.424L10.592 10.4427L17.508 20.7188ZM33.0721 0.362748C35.3494 0.362748 37.1321 0.960082 38.4201 2.15475C39.7081 3.34942 40.3521 4.96408 40.3521 6.99875C40.3521 8.39875 40.0441 9.59342 39.4281 10.5827C38.8121 11.5721 37.9254 12.3094 36.7681 12.7947L41.0801 20.7188H36.3201L32.4841 13.4947H29.3201V20.7188H25.0361V0.362748H33.0721ZM32.2601 10.0507C34.7054 10.0507 35.9281 9.03342 35.9281 6.99875C35.9281 5.97208 35.6107 5.19742 34.9761 4.67475C34.3601 4.13342 33.4454 3.86275 32.2321 3.86275H29.3201V10.0507H32.2601ZM61.0708 20.7188H56.4508L54.9388 16.0707H47.6028L46.0908 20.7188H41.4708L48.4988 0.362748H54.0428L61.0708 20.7188ZM48.6948 12.7107H53.8748L51.3548 5.01075H51.2148L48.6948 12.7107ZM66.9998 0.362748V20.7188H62.7158V0.362748H66.9998Z" fill="#FE2E36"/>
</svg>
