<svg width="58" height="18" viewBox="0 0 58 18" fill="none" xmlns="http://www.w3.org/2000/svg">
<path d="M0.556 0.551999H4.78V18H0.556V0.551999ZM15.868 0.551999L10.252 9.24L15.748 18H10.876L5.476 9.24L10.9 0.551999H15.868ZM28.4294 0.551999C30.3814 0.551999 31.9254 1.072 33.0614 2.112C34.2134 3.152 34.7894 4.568 34.7894 6.36C34.7894 7.544 34.5254 8.568 33.9974 9.432C33.4694 10.28 32.7254 10.92 31.7654 11.352L35.3894 18H30.7814L27.5894 12.024H25.4294V18H21.2054V0.551999H28.4294ZM27.5174 8.712C29.4534 8.712 30.4214 7.928 30.4214 6.36C30.4214 4.744 29.4534 3.936 27.5174 3.936H25.4294V8.712H27.5174ZM52.7564 18H48.2204L47.0684 14.328H41.0444L39.8924 18H35.3564L41.2364 0.551999H46.8524L52.7564 18ZM42.0524 11.136H46.0604L44.1164 4.944H43.9724L42.0524 11.136ZM57.8444 0.551999V18H53.6204V0.551999H57.8444Z" fill="#FF3333"/>
</svg>
