<svg width="278" height="75" viewBox="0 0 278 75" fill="none" xmlns="http://www.w3.org/2000/svg">
<path d="M16.2 1.29999V74H0.9V1.29999H16.2ZM62.1 74H43.9L19.8 37.3L43.6 1.29999H61.8L37.4 37.3L62.1 74ZM129.186 23.1C128.519 19.7 127.086 17.2 124.886 15.6C122.753 13.9333 119.786 13.1 115.986 13.1C112.319 13.1 109.453 13.9 107.386 15.5C105.319 17.0333 104.286 19 104.286 21.4C104.286 23.7333 105.286 25.6 107.286 27C109.353 28.3333 112.186 29.4333 115.786 30.3L122.286 31.8C136.819 35.0667 144.119 42.2 144.186 53.2C144.119 59.9333 141.586 65.2667 136.586 69.2C131.586 73.0667 124.686 75 115.886 75C107.153 75 100.286 73.1333 95.2859 69.4C90.2859 65.6 87.2193 60.1 86.0859 52.9L100.686 50.1C101.286 53.8333 102.953 56.7667 105.686 58.9C108.419 61.0333 111.753 62.1 115.686 62.1C119.553 62.1 122.653 61.2667 124.986 59.6C127.386 57.9333 128.586 55.8 128.586 53.2C128.586 50.9333 127.553 49.1 125.486 47.7C123.486 46.3 120.419 45.1 116.286 44.1L108.386 42.1C95.1193 38.9 88.4859 32.3 88.4859 22.3C88.4859 18.0333 89.6859 14.2333 92.0859 10.9C94.4859 7.56666 97.7859 4.96666 101.986 3.09999C106.186 1.23333 110.886 0.299995 116.086 0.299995C124.019 0.299995 130.286 2.06666 134.886 5.6C139.486 9.13333 142.386 14.1333 143.586 20.6L129.186 23.1ZM180.284 1.29999C185.684 1.29999 190.317 2.36666 194.184 4.49999C198.117 6.56666 201.117 9.46666 203.184 13.2C205.25 16.8667 206.284 21.1 206.284 25.9C206.284 30.7667 205.217 35.0333 203.084 38.7C201.017 42.3667 197.984 45.2333 193.984 47.3C190.05 49.3667 185.35 50.4 179.884 50.4H166.884V74H151.584V1.29999H180.284ZM177.384 38.1C181.65 38.1 184.884 37 187.084 34.8C189.35 32.5333 190.484 29.5667 190.484 25.9C190.484 22.1667 189.35 19.2333 187.084 17.1C184.817 14.9 181.55 13.8 177.284 13.8H166.884V38.1H177.384ZM262.998 27.6C261.864 23.4667 259.864 20.1667 256.998 17.7C254.131 15.1667 250.598 13.9 246.398 13.9C240.731 13.9 236.198 16 232.798 20.2C229.464 24.4 227.798 30.2 227.798 37.6C227.798 45.2 229.464 51.0667 232.798 55.2C236.198 59.3333 240.698 61.4 246.298 61.4C250.231 61.4 253.731 60.2 256.798 57.8C259.931 55.3333 262.031 52.1667 263.098 48.3L277.598 52.2C276.598 56.3333 274.731 60.1333 271.998 63.6C269.331 67 265.798 69.7667 261.398 71.9C256.998 73.9667 251.898 75 246.098 75C239.564 75 233.731 73.5333 228.598 70.6C223.464 67.6 219.431 63.3 216.498 57.7C213.631 52.0333 212.198 45.3333 212.198 37.6C212.198 29.8667 213.664 23.2 216.598 17.6C219.598 11.9333 223.664 7.63333 228.798 4.7C233.931 1.76666 239.698 0.299995 246.098 0.299995C254.498 0.299995 261.431 2.36666 266.898 6.5C272.364 10.5667 275.864 16.3 277.398 23.7L262.998 27.6Z" fill="#FE2E36"/>
</svg>
