<svg width="67" height="19" viewBox="0 0 67 19" fill="none" xmlns="http://www.w3.org/2000/svg">
<path d="M0.556 1.052H4.78V18.5H0.556V1.052ZM15.868 1.052L10.252 9.74L15.748 18.5H10.876L5.476 9.74L10.9 1.052H15.868ZM30.8294 6.524C30.7654 5.868 30.4934 5.332 30.0134 4.916C29.5334 4.5 28.8694 4.292 28.0214 4.292C27.2214 4.292 26.6134 4.452 26.1974 4.772C25.7814 5.092 25.5734 5.508 25.5734 6.02C25.5734 6.5 25.7894 6.884 26.2214 7.172C26.6534 7.444 27.2854 7.668 28.1174 7.844L29.6294 8.18C33.1814 8.964 34.9654 10.716 34.9814 13.436C34.9654 15.1 34.3494 16.396 33.1334 17.324C31.9174 18.252 30.2134 18.716 28.0214 18.716C25.8294 18.716 24.1094 18.236 22.8614 17.276C21.6294 16.3 20.8934 14.852 20.6534 12.932L24.6134 12.38C24.8374 14.284 25.9574 15.236 27.9734 15.236C28.8054 15.236 29.4614 15.068 29.9414 14.732C30.4374 14.396 30.6854 13.964 30.6854 13.436C30.6854 12.972 30.4614 12.588 30.0134 12.284C29.5654 11.98 28.8614 11.716 27.9014 11.492L26.0774 11.06C22.8294 10.324 21.2054 8.7 21.2054 6.188C21.2054 5.132 21.4934 4.196 22.0694 3.38C22.6614 2.564 23.4774 1.932 24.5174 1.484C25.5574 1.036 26.7334 0.811999 28.0454 0.811999C29.3574 0.811999 30.4934 1.044 31.4534 1.508C32.4294 1.956 33.1974 2.572 33.7574 3.356C34.3174 4.14 34.6534 5.004 34.7654 5.948L30.8294 6.524ZM43.2775 1.052C44.5575 1.052 45.6775 1.308 46.6375 1.82C47.5975 2.316 48.3335 3.02 48.8455 3.932C49.3735 4.844 49.6375 5.9 49.6375 7.1C49.6375 8.3 49.3735 9.348 48.8455 10.244C48.3175 11.14 47.5575 11.836 46.5655 12.332C45.5895 12.828 44.4455 13.076 43.1335 13.076H40.2775V18.5H36.0535V1.052H43.2775ZM42.3655 9.764C43.2935 9.764 44.0055 9.524 44.5015 9.044C45.0135 8.564 45.2695 7.916 45.2695 7.1C45.2695 6.268 45.0135 5.62 44.5015 5.156C44.0055 4.676 43.2935 4.436 42.3655 4.436H40.2775V9.764H42.3655ZM62.5461 7.556C62.3541 6.628 61.9381 5.892 61.2981 5.348C60.6581 4.788 59.8661 4.508 58.9221 4.508C57.6421 4.508 56.6421 4.972 55.9221 5.9C55.2021 6.828 54.8421 8.116 54.8421 9.764C54.8421 11.476 55.1861 12.788 55.8741 13.7C56.5781 14.596 57.5541 15.044 58.8021 15.044C59.7621 15.044 60.5621 14.788 61.2021 14.276C61.8421 13.748 62.2901 13.044 62.5461 12.164L66.5781 13.244C66.1781 14.876 65.3141 16.204 63.9861 17.228C62.6581 18.236 60.9301 18.74 58.8021 18.74C57.2181 18.74 55.8021 18.388 54.5541 17.684C53.3061 16.98 52.3221 15.956 51.6021 14.612C50.8981 13.252 50.5461 11.636 50.5461 9.764C50.5461 7.892 50.9061 6.284 51.6261 4.94C52.3621 3.596 53.3621 2.572 54.6261 1.868C55.8901 1.164 57.3221 0.811999 58.9221 0.811999C60.9221 0.811999 62.6021 1.308 63.9621 2.3C65.3221 3.276 66.1941 4.684 66.5781 6.524L62.5461 7.556Z" fill="#FF3333"/>
</svg>
