<svg width="78" height="21" viewBox="0 0 78 21" fill="none" xmlns="http://www.w3.org/2000/svg">
<path d="M4.656 0.362748V20.7188H0.372V0.362748H4.656ZM17.508 20.7188H12.412L5.664 10.4427L12.328 0.362748H17.424L10.592 10.4427L17.508 20.7188ZM36.2921 6.46675C36.1054 5.51475 35.7041 4.81475 35.0881 4.36675C34.4907 3.90008 33.6601 3.66675 32.5961 3.66675C31.5694 3.66675 30.7667 3.89075 30.1881 4.33875C29.6094 4.76808 29.3201 5.31875 29.3201 5.99075C29.3201 6.64408 29.6001 7.16675 30.1601 7.55875C30.7387 7.93208 31.5321 8.24008 32.5401 8.48275L34.3601 8.90275C38.4294 9.81742 40.4734 11.8147 40.4921 14.8947C40.4734 16.7801 39.7641 18.2734 38.3641 19.3747C36.9641 20.4574 35.0321 20.9988 32.5681 20.9988C30.1227 20.9988 28.2001 20.4761 26.8001 19.4307C25.4001 18.3667 24.5414 16.8267 24.2241 14.8107L28.3121 14.0267C28.4801 15.0721 28.9467 15.8934 29.7121 16.4907C30.4774 17.0881 31.4107 17.3867 32.5121 17.3867C33.5947 17.3867 34.4627 17.1534 35.1161 16.6867C35.7881 16.2201 36.1241 15.6227 36.1241 14.8947C36.1241 14.2601 35.8347 13.7467 35.2561 13.3547C34.6961 12.9627 33.8374 12.6267 32.6801 12.3467L30.4681 11.7867C26.7534 10.8907 24.8961 9.04275 24.8961 6.24275C24.8961 5.04808 25.2321 3.98408 25.9041 3.05075C26.5761 2.11742 27.5001 1.38942 28.6761 0.866749C29.8521 0.344082 31.1681 0.0827487 32.6241 0.0827487C34.8454 0.0827487 36.6001 0.577416 37.8881 1.56675C39.1761 2.55608 39.9881 3.95608 40.3241 5.76675L36.2921 6.46675ZM50.5994 0.362748C52.1114 0.362748 53.4087 0.661415 54.4914 1.25875C55.5927 1.83742 56.4327 2.64942 57.0114 3.69475C57.5901 4.72142 57.8794 5.90675 57.8794 7.25075C57.8794 8.61342 57.5807 9.80808 56.9834 10.8347C56.4047 11.8614 55.5554 12.6641 54.4354 13.2427C53.3341 13.8214 52.0181 14.1107 50.4874 14.1107H46.8474V20.7188H42.5634V0.362748H50.5994ZM49.7874 10.6667C50.9821 10.6667 51.8874 10.3587 52.5034 9.74275C53.1381 9.10808 53.4554 8.27742 53.4554 7.25075C53.4554 6.20542 53.1381 5.38408 52.5034 4.78675C51.8687 4.17075 50.9541 3.86275 49.7594 3.86275H46.8474V10.6667H49.7874ZM73.7593 7.72675C73.442 6.56942 72.882 5.64542 72.0793 4.95475C71.2767 4.24542 70.2873 3.89075 69.1113 3.89075C67.5247 3.89075 66.2553 4.47875 65.3033 5.65475C64.37 6.83075 63.9033 8.45475 63.9033 10.5267C63.9033 12.6547 64.37 14.2974 65.3033 15.4547C66.2553 16.6121 67.5153 17.1907 69.0833 17.1907C70.1847 17.1907 71.1647 16.8547 72.0233 16.1827C72.9007 15.4921 73.4887 14.6054 73.7873 13.5228L77.8473 14.6147C77.5673 15.7721 77.0447 16.8361 76.2793 17.8067C75.5327 18.7587 74.5433 19.5334 73.3113 20.1307C72.0793 20.7094 70.6513 20.9988 69.0273 20.9988C67.198 20.9988 65.5647 20.5881 64.1273 19.7667C62.69 18.9267 61.5607 17.7227 60.7393 16.1547C59.9367 14.5681 59.5353 12.6921 59.5353 10.5267C59.5353 8.36142 59.946 6.49475 60.7673 4.92675C61.6073 3.34008 62.746 2.13608 64.1833 1.31475C65.6207 0.493416 67.2353 0.0827487 69.0273 0.0827487C71.3793 0.0827487 73.3207 0.661416 74.8513 1.81875C76.382 2.95742 77.362 4.56275 77.7913 6.63475L73.7593 7.72675Z" fill="#FE2E36"/>
</svg>
