<svg width="92" height="19" viewBox="0 0 92 19" fill="none" xmlns="http://www.w3.org/2000/svg">
<path d="M0.556 1.052H4.78V18.5H0.556V1.052ZM15.868 1.052L10.252 9.74L15.748 18.5H10.876L5.476 9.74L10.9 1.052H15.868ZM30.8294 6.524C30.7654 5.868 30.4934 5.332 30.0134 4.916C29.5334 4.5 28.8694 4.292 28.0214 4.292C27.2214 4.292 26.6134 4.452 26.1974 4.772C25.7814 5.092 25.5734 5.508 25.5734 6.02C25.5734 6.5 25.7894 6.884 26.2214 7.172C26.6534 7.444 27.2854 7.668 28.1174 7.844L29.6294 8.18C33.1814 8.964 34.9654 10.716 34.9814 13.436C34.9654 15.1 34.3494 16.396 33.1334 17.324C31.9174 18.252 30.2134 18.716 28.0214 18.716C25.8294 18.716 24.1094 18.236 22.8614 17.276C21.6294 16.3 20.8934 14.852 20.6534 12.932L24.6134 12.38C24.8374 14.284 25.9574 15.236 27.9734 15.236C28.8054 15.236 29.4614 15.068 29.9414 14.732C30.4374 14.396 30.6854 13.964 30.6854 13.436C30.6854 12.972 30.4614 12.588 30.0134 12.284C29.5654 11.98 28.8614 11.716 27.9014 11.492L26.0774 11.06C22.8294 10.324 21.2054 8.7 21.2054 6.188C21.2054 5.132 21.4934 4.196 22.0694 3.38C22.6614 2.564 23.4774 1.932 24.5174 1.484C25.5574 1.036 26.7334 0.811999 28.0454 0.811999C29.3574 0.811999 30.4934 1.044 31.4534 1.508C32.4294 1.956 33.1974 2.572 33.7574 3.356C34.3174 4.14 34.6534 5.004 34.7654 5.948L30.8294 6.524ZM41.0935 14.372C41.0935 14.756 41.1815 15.028 41.3575 15.188C41.5335 15.348 41.7975 15.428 42.1495 15.428C42.5655 15.428 42.9975 15.396 43.4455 15.332V18.452C42.7735 18.612 42.0135 18.692 41.1655 18.692C39.8055 18.692 38.7495 18.364 37.9975 17.708C37.2615 17.036 36.9015 16.084 36.9175 14.852V8.468H35.1895V5.42H36.9175V2.036H41.0935V5.42H43.4455V8.468H41.0935V14.372ZM53.2375 18.5V17.108C52.8535 17.62 52.3175 18.012 51.6295 18.284C50.9575 18.54 50.1975 18.668 49.3495 18.668C47.8775 18.668 46.7095 18.22 45.8455 17.324C44.9975 16.428 44.5735 15.236 44.5735 13.748V5.42H48.7495V12.932C48.7495 13.652 48.9335 14.22 49.3015 14.636C49.6695 15.052 50.1815 15.26 50.8375 15.26C51.4935 15.26 52.0215 15.052 52.4215 14.636C52.8215 14.204 53.0215 13.62 53.0215 12.884V5.42H57.1975V18.5H53.2375ZM63.6357 18.692C62.6437 18.692 61.7477 18.436 60.9477 17.924C60.1637 17.412 59.5397 16.652 59.0757 15.644C58.6277 14.636 58.4037 13.412 58.4037 11.972C58.4037 10.484 58.6437 9.236 59.1237 8.228C59.6037 7.22 60.2517 6.468 61.0677 5.972C61.8837 5.476 62.7957 5.228 63.8037 5.228C64.5717 5.228 65.2677 5.356 65.8917 5.612C66.5157 5.852 67.0197 6.204 67.4037 6.668V0.451999H71.5557V18.5H67.4277V17.228C67.1077 17.644 66.6037 17.996 65.9157 18.284C65.2437 18.556 64.4837 18.692 63.6357 18.692ZM67.4757 11.948C67.4757 10.876 67.2597 10.036 66.8277 9.428C66.4117 8.804 65.8277 8.492 65.0757 8.492C64.3077 8.492 63.7157 8.804 63.2997 9.428C62.8837 10.052 62.6757 10.892 62.6757 11.948C62.6757 13.02 62.8837 13.868 63.2997 14.492C63.7157 15.116 64.3077 15.428 65.0757 15.428C65.8277 15.428 66.4117 15.116 66.8277 14.492C67.2597 13.868 67.4757 13.02 67.4757 11.948ZM73.2391 18.5L73.2151 5.42H77.3911L77.4151 18.5H73.2391ZM73.2151 3.716V0.451999H77.3911V3.716H73.2151ZM85.1597 18.74C83.7997 18.74 82.6237 18.46 81.6317 17.9C80.6397 17.34 79.8717 16.556 79.3277 15.548C78.7997 14.524 78.5357 13.34 78.5357 11.996C78.5357 10.652 78.7997 9.476 79.3277 8.468C79.8717 7.444 80.6397 6.652 81.6317 6.092C82.6237 5.516 83.7997 5.228 85.1597 5.228C86.5197 5.228 87.6957 5.516 88.6877 6.092C89.6797 6.652 90.4397 7.444 90.9677 8.468C91.5118 9.476 91.7838 10.652 91.7838 11.996C91.7838 13.34 91.5118 14.524 90.9677 15.548C90.4397 16.556 89.6797 17.34 88.6877 17.9C87.6957 18.46 86.5197 18.74 85.1597 18.74ZM85.1837 15.596C85.9197 15.596 86.4957 15.268 86.9117 14.612C87.3277 13.956 87.5358 13.076 87.5358 11.972C87.5358 10.868 87.3277 9.988 86.9117 9.332C86.4957 8.66 85.9197 8.324 85.1837 8.324C84.4317 8.324 83.8397 8.66 83.4077 9.332C82.9917 9.988 82.7837 10.868 82.7837 11.972C82.7837 13.076 82.9917 13.956 83.4077 14.612C83.8397 15.268 84.4317 15.596 85.1837 15.596Z" fill="#FF3333"/>
</svg>
