<svg width="383" height="78" viewBox="0 0 383 78" fill="none" xmlns="http://www.w3.org/2000/svg">
<path d="M16.2 3.29999V76H0.9V3.29999H16.2ZM62.1 76H43.9L19.8 39.3L43.6 3.29999H61.8L37.4 39.3L62.1 76ZM129.186 25.1C128.519 21.7 127.086 19.2 124.886 17.6C122.753 15.9333 119.786 15.1 115.986 15.1C112.319 15.1 109.453 15.9 107.386 17.5C105.319 19.0333 104.286 21 104.286 23.4C104.286 25.7333 105.286 27.6 107.286 29C109.353 30.3333 112.186 31.4333 115.786 32.3L122.286 33.8C136.819 37.0667 144.119 44.2 144.186 55.2C144.119 61.9333 141.586 67.2667 136.586 71.2C131.586 75.0667 124.686 77 115.886 77C107.153 77 100.286 75.1333 95.2859 71.4C90.2859 67.6 87.2193 62.1 86.0859 54.9L100.686 52.1C101.286 55.8333 102.953 58.7667 105.686 60.9C108.419 63.0333 111.753 64.1 115.686 64.1C119.553 64.1 122.653 63.2667 124.986 61.6C127.386 59.9333 128.586 57.8 128.586 55.2C128.586 52.9333 127.553 51.1 125.486 49.7C123.486 48.3 120.419 47.1 116.286 46.1L108.386 44.1C95.1193 40.9 88.4859 34.3 88.4859 24.3C88.4859 20.0333 89.6859 16.2333 92.0859 12.9C94.4859 9.56666 97.7859 6.96666 101.986 5.09999C106.186 3.23333 110.886 2.3 116.086 2.3C124.019 2.3 130.286 4.06666 134.886 7.6C139.486 11.1333 142.386 16.1333 143.586 22.6L129.186 25.1ZM169.984 59.2C169.984 62.8 171.684 64.6 175.084 64.6C177.284 64.6 179.117 64.4333 180.584 64.1V75.7C178.184 76.4333 175.25 76.8 171.784 76.8C166.517 76.8 162.384 75.4667 159.384 72.8C156.384 70.0667 154.884 66.2 154.884 61.2V32.8H147.384V21.5H154.884V7.4H169.984V21.5H180.284V32.8H169.984V59.2ZM222.921 76V70.3C221.254 72.4333 219.054 74.0333 216.321 75.1C213.654 76.1667 210.621 76.7 207.221 76.7C200.954 76.7 196.054 74.8667 192.521 71.2C188.988 67.5333 187.221 62.5333 187.221 56.2V21.5H202.321V53.5C202.321 56.8333 203.188 59.4333 204.921 61.3C206.654 63.1667 209.021 64.1 212.021 64.1C215.088 64.1 217.554 63.1 219.421 61.1C221.288 59.1 222.221 56.4 222.221 53V21.5H237.321V76H222.921ZM282.698 70.5C281.232 72.3 279.132 73.8333 276.398 75.1C273.732 76.3 270.765 76.9 267.498 76.9C263.032 76.9 259.032 75.8333 255.498 73.7C252.032 71.5667 249.298 68.4 247.298 64.2C245.365 60 244.398 54.9667 244.398 49.1C244.398 43.0333 245.398 37.8667 247.398 33.6C249.398 29.3333 252.198 26.1333 255.798 24C259.398 21.8 263.532 20.7 268.198 20.7C271.132 20.7 273.832 21.2 276.298 22.2C278.832 23.2 280.898 24.6333 282.498 26.5V0.799997H297.698V76H282.698V70.5ZM259.898 48.8C259.898 53.6 260.898 57.4667 262.898 60.4C264.965 63.3333 267.765 64.8 271.298 64.8C274.832 64.8 277.632 63.3333 279.698 60.4C281.765 57.4667 282.798 53.6 282.798 48.8C282.798 43.9333 281.765 40.0667 279.698 37.2C277.632 34.2667 274.832 32.8 271.298 32.8C267.765 32.8 264.965 34.2667 262.898 37.2C260.898 40.1333 259.898 44 259.898 48.8ZM307.143 76V21.5H322.243V76H307.143ZM307.143 14V0.799997H322.243V14H307.143ZM356.059 77.1C350.659 77.1 345.926 75.9333 341.859 73.6C337.793 71.2 334.659 67.8667 332.459 63.6C330.326 59.3333 329.259 54.4333 329.259 48.9C329.259 43.3 330.359 38.3667 332.559 34.1C334.759 29.8333 337.859 26.5333 341.859 24.2C345.926 21.8667 350.659 20.7 356.059 20.7C361.526 20.7 366.293 21.9 370.359 24.3C374.426 26.6333 377.526 29.9333 379.659 34.2C381.859 38.4 382.959 43.3 382.959 48.9C382.959 54.5 381.859 59.4333 379.659 63.7C377.459 67.9 374.326 71.2 370.259 73.6C366.193 75.9333 361.459 77.1 356.059 77.1ZM356.159 65.3C359.759 65.3 362.559 63.7667 364.559 60.7C366.559 57.6333 367.559 53.6667 367.559 48.8C367.559 43.9333 366.559 39.9667 364.559 36.9C362.559 33.8333 359.759 32.3 356.159 32.3C352.493 32.3 349.659 33.8333 347.659 36.9C345.659 39.9667 344.659 43.9333 344.659 48.8C344.659 53.7333 345.659 57.7333 347.659 60.8C349.659 63.8 352.493 65.3 356.159 65.3Z" fill="#FE2E36"/>
</svg>
