<svg width="210" height="24" viewBox="0 0 210 24" fill="none" xmlns="http://www.w3.org/2000/svg">
<path d="M0.0560001 1.052H4.28V18.5H0.0560001V1.052ZM15.368 1.052L9.752 9.74L15.248 18.5H10.376L4.976 9.74L10.4 1.052H15.368ZM20.7294 18.5L20.7054 5.42H24.8814L24.9054 18.5H20.7294ZM20.7054 3.716V0.451999H24.8814V3.716H20.7054ZM30.5141 5.42V6.788C30.8981 6.276 31.4261 5.892 32.0981 5.636C32.7701 5.364 33.5381 5.228 34.4021 5.228C35.8741 5.228 37.0341 5.676 37.8821 6.572C38.7461 7.468 39.1781 8.66 39.1781 10.148V18.5H35.0021V10.964C35.0021 10.244 34.8181 9.684 34.4501 9.284C34.0821 8.868 33.5701 8.66 32.9141 8.66C32.2421 8.66 31.7061 8.876 31.3061 9.308C30.9061 9.724 30.7061 10.3 30.7061 11.036V18.5H26.5301V5.42H30.5141ZM45.8088 14.372C45.8088 14.756 45.8968 15.028 46.0728 15.188C46.2488 15.348 46.5128 15.428 46.8648 15.428C47.2808 15.428 47.7128 15.396 48.1608 15.332V18.452C47.4888 18.612 46.7288 18.692 45.8808 18.692C44.5208 18.692 43.4648 18.364 42.7128 17.708C41.9768 17.036 41.6168 16.084 41.6328 14.852V8.468H39.9048V5.42H41.6328V2.036H45.8088V5.42H48.1608V8.468H45.8088V14.372ZM57.6202 10.532C57.6042 9.86 57.3722 9.316 56.9242 8.9C56.4922 8.468 55.9322 8.252 55.2442 8.252C54.5562 8.252 53.9802 8.476 53.5162 8.924C53.0522 9.356 52.8042 9.892 52.7722 10.532H57.6202ZM55.3882 18.764C54.0122 18.764 52.8122 18.492 51.7882 17.948C50.7802 17.404 50.0042 16.628 49.4602 15.62C48.9162 14.596 48.6442 13.388 48.6442 11.996C48.6442 10.652 48.9082 9.468 49.4362 8.444C49.9802 7.42 50.7402 6.628 51.7162 6.068C52.6922 5.508 53.8362 5.228 55.1482 5.228C56.3962 5.228 57.4922 5.492 58.4362 6.02C59.3962 6.532 60.1402 7.292 60.6682 8.3C61.2122 9.308 61.4842 10.516 61.4842 11.924V12.956H52.7722V13.076C52.7722 13.892 53.0042 14.54 53.4682 15.02C53.9322 15.5 54.5722 15.74 55.3882 15.74C56.0122 15.74 56.5162 15.604 56.9002 15.332C57.2842 15.06 57.5402 14.676 57.6682 14.18L61.3642 14.804C61.0282 16.052 60.3642 17.028 59.3722 17.732C58.3802 18.42 57.0522 18.764 55.3882 18.764ZM66.8129 0.451999V18.5H62.6369V0.451999H66.8129ZM72.6142 0.451999V18.5H68.4382V0.451999H72.6142ZM74.2634 18.5L74.2394 5.42H78.4154L78.4394 18.5H74.2634ZM74.2394 3.716V0.451999H78.4154V3.716H74.2394ZM86.2801 23.684C84.5201 23.684 83.1041 23.348 82.0321 22.676C80.9601 22.02 80.2561 21.076 79.9201 19.844L83.7841 19.244C83.9121 19.708 84.2001 20.076 84.6481 20.348C85.0961 20.62 85.6401 20.756 86.2801 20.756C87.0161 20.756 87.6001 20.548 88.0321 20.132C88.4801 19.732 88.7041 19.14 88.7041 18.356V17.036C88.4001 17.42 87.9281 17.732 87.2881 17.972C86.6481 18.212 85.9441 18.332 85.1761 18.332C83.4961 18.332 82.1521 17.804 81.1441 16.748C80.1361 15.676 79.6321 14.076 79.6321 11.948C79.6321 10.46 79.8721 9.212 80.3521 8.204C80.8321 7.196 81.4801 6.452 82.2961 5.972C83.1281 5.476 84.0721 5.228 85.1281 5.228C85.8801 5.228 86.5601 5.364 87.1681 5.636C87.7921 5.908 88.2881 6.26 88.6561 6.692V5.42H92.8081V18.188C92.8081 19.964 92.2081 21.324 91.0081 22.268C89.8081 23.212 88.2321 23.684 86.2801 23.684ZM86.3041 15.284C87.0561 15.284 87.6401 14.988 88.0561 14.396C88.4881 13.804 88.7041 12.988 88.7041 11.948C88.7041 10.876 88.4961 10.036 88.0801 9.428C87.6641 8.804 87.0721 8.492 86.3041 8.492C85.5361 8.492 84.9441 8.804 84.5281 9.428C84.1121 10.052 83.9041 10.892 83.9041 11.948C83.9041 13.004 84.1121 13.828 84.5281 14.42C84.9441 14.996 85.5361 15.284 86.3041 15.284ZM102.939 10.532C102.923 9.86 102.691 9.316 102.243 8.9C101.811 8.468 101.251 8.252 100.563 8.252C99.8749 8.252 99.2989 8.476 98.8349 8.924C98.3709 9.356 98.1229 9.892 98.0909 10.532H102.939ZM100.707 18.764C99.3309 18.764 98.1309 18.492 97.1069 17.948C96.0989 17.404 95.3229 16.628 94.7789 15.62C94.2349 14.596 93.9629 13.388 93.9629 11.996C93.9629 10.652 94.2269 9.468 94.7549 8.444C95.2989 7.42 96.0589 6.628 97.0349 6.068C98.0109 5.508 99.1549 5.228 100.467 5.228C101.715 5.228 102.811 5.492 103.755 6.02C104.715 6.532 105.459 7.292 105.987 8.3C106.531 9.308 106.803 10.516 106.803 11.924V12.956H98.0909V13.076C98.0909 13.892 98.3229 14.54 98.7869 15.02C99.2509 15.5 99.8909 15.74 100.707 15.74C101.331 15.74 101.835 15.604 102.219 15.332C102.603 15.06 102.859 14.676 102.987 14.18L106.683 14.804C106.347 16.052 105.683 17.028 104.691 17.732C103.699 18.42 102.371 18.764 100.707 18.764ZM111.94 5.42V6.788C112.324 6.276 112.852 5.892 113.524 5.636C114.196 5.364 114.964 5.228 115.828 5.228C117.3 5.228 118.46 5.676 119.308 6.572C120.172 7.468 120.604 8.66 120.604 10.148V18.5H116.428V10.964C116.428 10.244 116.244 9.684 115.876 9.284C115.508 8.868 114.996 8.66 114.34 8.66C113.668 8.66 113.132 8.876 112.732 9.308C112.332 9.724 112.132 10.3 112.132 11.036V18.5H107.956V5.42H111.94ZM128.338 18.74C126.978 18.74 125.794 18.46 124.786 17.9C123.794 17.34 123.026 16.548 122.482 15.524C121.954 14.5 121.69 13.324 121.69 11.996C121.69 10.668 121.954 9.492 122.482 8.468C123.026 7.444 123.794 6.652 124.786 6.092C125.778 5.516 126.954 5.228 128.314 5.228C130.042 5.228 131.418 5.604 132.442 6.356C133.466 7.108 134.138 8.18 134.458 9.572L130.81 10.676C130.682 9.972 130.426 9.42 130.042 9.02C129.658 8.62 129.138 8.42 128.482 8.42C127.73 8.42 127.114 8.732 126.634 9.356C126.17 9.964 125.938 10.828 125.938 11.948C125.938 13.084 126.17 13.964 126.634 14.588C127.098 15.212 127.706 15.524 128.458 15.524C129.098 15.524 129.618 15.316 130.018 14.9C130.434 14.484 130.706 13.932 130.834 13.244L134.506 14.348C134.186 15.74 133.506 16.82 132.466 17.588C131.442 18.356 130.066 18.74 128.338 18.74ZM144.015 10.532C143.999 9.86 143.767 9.316 143.319 8.9C142.887 8.468 142.327 8.252 141.639 8.252C140.951 8.252 140.375 8.476 139.911 8.924C139.447 9.356 139.199 9.892 139.167 10.532H144.015ZM141.783 18.764C140.407 18.764 139.207 18.492 138.183 17.948C137.175 17.404 136.399 16.628 135.855 15.62C135.311 14.596 135.039 13.388 135.039 11.996C135.039 10.652 135.303 9.468 135.831 8.444C136.375 7.42 137.135 6.628 138.111 6.068C139.087 5.508 140.231 5.228 141.543 5.228C142.791 5.228 143.887 5.492 144.831 6.02C145.791 6.532 146.535 7.292 147.063 8.3C147.607 9.308 147.879 10.516 147.879 11.924V12.956H139.167V13.076C139.167 13.892 139.399 14.54 139.863 15.02C140.327 15.5 140.967 15.74 141.783 15.74C142.407 15.74 142.911 15.604 143.295 15.332C143.679 15.06 143.935 14.676 144.063 14.18L147.759 14.804C147.423 16.052 146.759 17.028 145.767 17.732C144.775 18.42 143.447 18.764 141.783 18.764ZM163.449 6.524C163.385 5.868 163.113 5.332 162.633 4.916C162.153 4.5 161.489 4.292 160.641 4.292C159.841 4.292 159.233 4.452 158.817 4.772C158.401 5.092 158.193 5.508 158.193 6.02C158.193 6.5 158.409 6.884 158.841 7.172C159.273 7.444 159.905 7.668 160.737 7.844L162.249 8.18C165.801 8.964 167.585 10.716 167.601 13.436C167.585 15.1 166.969 16.396 165.753 17.324C164.537 18.252 162.833 18.716 160.641 18.716C158.449 18.716 156.729 18.236 155.481 17.276C154.249 16.3 153.513 14.852 153.273 12.932L157.233 12.38C157.457 14.284 158.577 15.236 160.593 15.236C161.425 15.236 162.081 15.068 162.561 14.732C163.057 14.396 163.305 13.964 163.305 13.436C163.305 12.972 163.081 12.588 162.633 12.284C162.185 11.98 161.481 11.716 160.521 11.492L158.697 11.06C155.449 10.324 153.825 8.7 153.825 6.188C153.825 5.132 154.113 4.196 154.689 3.38C155.281 2.564 156.097 1.932 157.137 1.484C158.177 1.036 159.353 0.811999 160.665 0.811999C161.977 0.811999 163.113 1.044 164.073 1.508C165.049 1.956 165.817 2.572 166.377 3.356C166.937 4.14 167.273 5.004 167.385 5.948L163.449 6.524ZM177.337 18.5V17.108C176.953 17.62 176.417 18.012 175.729 18.284C175.057 18.54 174.297 18.668 173.449 18.668C171.977 18.668 170.809 18.22 169.945 17.324C169.097 16.428 168.673 15.236 168.673 13.748V5.42H172.849V12.932C172.849 13.652 173.033 14.22 173.401 14.636C173.769 15.052 174.281 15.26 174.937 15.26C175.593 15.26 176.121 15.052 176.521 14.636C176.921 14.204 177.121 13.62 177.121 12.884V5.42H181.297V18.5H177.337ZM182.959 18.5L182.935 5.42H187.111L187.135 18.5H182.959ZM182.935 3.716V0.451999H187.111V3.716H182.935ZM193.8 14.372C193.8 14.756 193.888 15.028 194.064 15.188C194.24 15.348 194.504 15.428 194.856 15.428C195.272 15.428 195.704 15.396 196.152 15.332V18.452C195.48 18.612 194.72 18.692 193.872 18.692C192.512 18.692 191.456 18.364 190.704 17.708C189.968 17.036 189.608 16.084 189.624 14.852V8.468H187.896V5.42H189.624V2.036H193.8V5.42H196.152V8.468H193.8V14.372ZM205.611 10.532C205.595 9.86 205.363 9.316 204.915 8.9C204.483 8.468 203.923 8.252 203.235 8.252C202.547 8.252 201.971 8.476 201.507 8.924C201.043 9.356 200.795 9.892 200.763 10.532H205.611ZM203.379 18.764C202.003 18.764 200.803 18.492 199.779 17.948C198.771 17.404 197.995 16.628 197.451 15.62C196.907 14.596 196.635 13.388 196.635 11.996C196.635 10.652 196.899 9.468 197.427 8.444C197.971 7.42 198.731 6.628 199.707 6.068C200.683 5.508 201.827 5.228 203.139 5.228C204.387 5.228 205.483 5.492 206.427 6.02C207.387 6.532 208.131 7.292 208.659 8.3C209.203 9.308 209.475 10.516 209.475 11.924V12.956H200.763V13.076C200.763 13.892 200.995 14.54 201.459 15.02C201.923 15.5 202.563 15.74 203.379 15.74C204.003 15.74 204.507 15.604 204.891 15.332C205.275 15.06 205.531 14.676 205.659 14.18L209.355 14.804C209.019 16.052 208.355 17.028 207.363 17.732C206.371 18.42 205.043 18.764 203.379 18.764Z" fill="#FF3333"/>
</svg>
